<?xml version="1.0" standalone="no"?>
<!DOCTYPE svg PUBLIC "-//W3C//DTD SVG 20010904//EN"
 "http://www.w3.org/TR/2001/REC-SVG-20010904/DTD/svg10.dtd">
<svg version="1.0" xmlns="http://www.w3.org/2000/svg"
 width="300.000000pt" height="300.000000pt" viewBox="0 0 300.000000 300.000000"
 preserveAspectRatio="xMidYMid meet">
<metadata>
Created by potrace 1.10, written by Peter Selinger 2001-2011
</metadata>
<g transform="translate(0.000000,300.000000) scale(0.100000,-0.100000)"
fill="#000000" stroke="none">
<path d="M908 2990 c-15 -4 -68 -29 -118 -54 -250 -124 -460 -311 -620 -550
-51 -76 -152 -278 -163 -324 -10 -44 16 -9 55 74 21 46 43 86 48 89 6 3 10 14
10 24 0 10 7 24 15 31 8 7 13 15 11 19 -3 4 19 38 47 76 29 37 61 83 72 100
36 56 162 191 176 187 5 -1 9 2 9 7 0 16 121 111 132 104 7 -4 8 -1 4 6 -5 8
0 14 13 18 12 3 21 10 21 15 0 5 5 6 10 3 6 -3 10 -2 10 3 0 5 18 17 39 27 22
10 42 24 45 31 3 8 15 14 26 14 11 0 20 4 20 9 0 8 37 24 53 22 4 -1 7 4 7 9
0 6 3 9 8 8 4 -1 17 3 28 10 12 6 23 9 26 7 3 -3 15 6 28 20 13 14 22 25 19
24 -2 0 -16 -4 -31 -9z"/>
<path d="M2066 2986 c5 -12 29 -28 37 -24 1 1 13 -5 27 -12 14 -8 30 -15 37
-16 7 -1 25 -11 40 -21 15 -11 58 -34 95 -53 37 -18 65 -37 62 -42 -3 -4 -1
-8 5 -8 12 0 76 -42 113 -76 15 -13 31 -24 35 -24 5 0 23 -18 42 -40 19 -22
38 -37 43 -34 4 3 8 1 8 -4 0 -5 16 -25 35 -45 19 -20 35 -38 35 -40 0 -3 16
-22 35 -43 19 -21 35 -45 35 -53 0 -8 3 -11 6 -8 7 6 34 -24 48 -53 4 -8 18
-33 31 -55 32 -52 111 -213 120 -245 4 -13 14 -30 21 -38 8 -7 11 -18 8 -24
-4 -6 -2 -8 4 -4 14 9 6 49 -26 121 -156 353 -430 639 -767 800 -113 54 -137
61 -129 41z"/>
<path d="M1486 2844 c-9 -8 -16 -29 -16 -45 0 -26 4 -29 30 -29 27 0 29 -2 24
-30 -6 -26 -4 -30 15 -30 19 0 21 5 21 65 0 36 4 65 10 65 5 0 7 -13 4 -30 -6
-28 -5 -30 24 -30 17 0 37 -3 46 -6 27 -10 21 51 -6 70 -30 22 -131 22 -152 0z
m44 -29 c0 -16 -6 -25 -15 -25 -15 0 -21 31 -8 43 13 14 23 6 23 -18z m100 -6
c0 -12 -5 -19 -11 -17 -6 2 -10 7 -10 11 1 4 1 14 1 23 0 8 5 12 10 9 6 -3 10
-15 10 -26z"/>
<path d="M1250 2824 c-6 -14 -21 -40 -35 -58 -44 -57 -29 -92 34 -81 35 6 41
10 41 31 0 24 14 32 25 14 4 -6 11 -8 16 -5 12 8 12 45 0 45 -27 0 -62 -23
-71 -45 -10 -26 -24 -32 -36 -14 -3 6 8 30 25 54 30 43 41 85 21 85 -6 0 -15
-12 -20 -26z"/>
<path d="M1773 2820 c-5 -25 -9 -29 -29 -24 -17 4 -26 1 -30 -11 -9 -24 16
-38 31 -18 17 23 25 3 15 -40 -7 -32 -5 -37 10 -37 13 0 19 11 24 40 6 38 26
57 26 24 0 -20 24 -13 28 8 2 10 -7 18 -23 22 -21 5 -24 11 -19 30 4 16 1 25
-11 29 -11 5 -17 -1 -22 -23z"/>
<path d="M1089 2813 c-1 -4 -2 -19 -3 -32 -1 -29 -23 -40 -28 -13 -3 16 -8 17
-35 10 -23 -6 -33 -14 -33 -28 0 -25 27 -27 33 -2 5 20 7 14 26 -55 8 -28 18
-43 27 -43 16 0 15 13 -2 73 -4 11 0 17 10 17 9 0 19 -15 26 -40 10 -38 23
-50 34 -32 8 13 -29 145 -42 150 -7 2 -13 0 -13 -5z"/>
<path d="M1926 2781 c-10 -11 -24 -39 -31 -64 -15 -49 -10 -57 36 -57 11 0 22
-7 25 -15 9 -22 34 -18 34 5 0 14 -7 20 -22 20 -44 0 -53 14 -37 56 15 41 48
68 56 47 8 -21 39 -15 40 7 2 17 -4 20 -41 20 -29 0 -48 -6 -60 -19z"/>
<path d="M2107 2771 c3 -12 -2 -23 -15 -30 -21 -11 -57 -95 -47 -111 12 -19
21 -10 39 40 20 55 32 68 49 51 9 -9 7 -24 -6 -60 -21 -59 -21 -61 -3 -61 15
0 46 67 46 99 0 10 -7 24 -15 31 -8 7 -15 20 -15 30 0 10 -7 21 -16 24 -22 9
-23 8 -17 -13z"/>
<path d="M864 2750 c-12 -4 -23 -14 -26 -22 -9 -22 21 -108 37 -108 19 0 19 7
0 61 -12 33 -13 44 -3 50 19 12 35 -8 54 -64 20 -62 18 -59 36 -52 14 5 13 13
-4 58 -31 81 -49 96 -94 77z"/>
<path d="M1565 2415 c-32 -36 -56 -53 -68 -51 -9 2 -15 0 -12 -4 3 -5 -11 -14
-32 -19 -150 -40 -237 -44 -331 -15 -46 14 -85 15 -159 3 -6 -1 -16 -13 -22
-26 -8 -18 -8 -23 4 -23 8 0 15 7 15 15 0 11 15 13 78 10 42 -2 104 -9 137
-15 66 -13 192 -7 209 10 5 5 20 10 31 10 12 0 36 7 53 15 17 9 42 14 57 11
14 -3 36 -1 48 5 20 9 20 9 -5 6 -16 -3 -28 -3 -28 -2 0 1 22 26 50 56 27 30
50 57 50 62 0 20 -30 0 -75 -48z"/>
<path d="M830 2381 c-13 -25 -13 -71 0 -71 6 0 10 -7 10 -15 0 -8 -4 -15 -10
-15 -5 0 -10 -5 -10 -10 0 -7 6 -7 18 -1 13 7 23 6 31 -2 10 -9 11 -8 6 6 -4
9 -12 17 -19 17 -7 0 -6 4 3 9 10 7 9 11 -8 23 -19 14 -22 42 -6 68 3 6 4 10
1 10 -3 0 -10 -9 -16 -19z"/>
<path d="M1915 2370 c-28 -4 -75 -14 -105 -23 -30 -9 -108 -23 -174 -33 -82
-12 -112 -20 -97 -25 11 -5 35 -6 53 -4 18 2 50 7 72 9 90 12 121 18 138 27
12 6 18 6 18 -1 0 -5 -6 -10 -14 -10 -12 0 -31 -29 -24 -35 8 -8 80 -45 86
-45 3 0 -11 12 -32 26 l-39 27 45 23 c25 13 87 30 139 39 52 9 98 21 104 26
11 11 -94 10 -170 -1z"/>
<path d="M866 2345 c9 -14 18 -25 20 -25 2 0 -2 11 -8 25 -6 14 -15 25 -20 25
-5 0 -1 -11 8 -25z"/>
<path d="M933 2358 c-24 -32 -24 -41 0 -19 15 14 27 26 27 28 0 8 -19 2 -27
-9z"/>
<path d="M760 2290 c0 -43 -4 -60 -13 -60 -21 0 -56 -43 -63 -77 -4 -23 0 -46
16 -79 20 -41 22 -53 13 -101 -7 -41 -7 -56 2 -59 8 -4 10 -37 7 -122 -6 -165
-6 -159 -4 -248 2 -92 -2 -87 92 -109 54 -13 56 -13 95 13 52 35 53 37 52 89
0 38 8 56 62 134 86 124 93 144 79 214 l-11 56 -22 -87 c-17 -69 -28 -92 -52
-113 -48 -42 -91 -120 -99 -181 -4 -30 -14 -65 -23 -77 -17 -24 -61 -31 -61
-10 0 16 -37 51 -62 60 -14 5 -16 13 -11 39 11 60 21 77 40 72 10 -3 31 -1 46
5 25 10 27 15 27 63 0 60 -16 128 -30 128 -6 0 -10 5 -10 11 0 5 4 8 9 5 5 -3
21 4 35 15 21 16 26 29 24 52 -4 37 -34 60 -48 37 -6 -8 -9 -24 -8 -35 3 -25
-10 -47 -23 -40 -24 15 2 117 33 128 7 2 30 -4 50 -14 37 -19 124 -27 114 -11
-3 5 8 22 24 37 44 42 39 61 -7 32 -66 -41 -69 -41 -25 1 24 22 41 45 38 50
-6 10 -86 -61 -86 -77 0 -5 -7 -12 -16 -15 -22 -8 -26 -8 -20 3 7 10 -49 27
-73 22 -47 -9 -87 -110 -62 -159 5 -9 17 -35 28 -57 12 -23 21 -64 22 -97 l2
-58 -28 6 c-23 4 -35 0 -58 -23 -15 -15 -25 -23 -22 -16 6 9 9 180 7 313 -1
19 -1 50 0 69 0 18 -7 45 -15 58 -19 28 -28 66 -15 58 5 -3 11 -1 15 5 3 5 1
10 -5 10 -22 0 -6 54 20 67 14 7 32 21 41 32 9 11 19 17 23 14 3 -4 6 -3 6 1
0 4 -7 14 -15 22 -8 9 -15 22 -15 31 0 13 3 13 18 2 14 -11 13 -10 -2 9 -29
34 -36 27 -36 -38z m18 -796 c29 -20 29 -38 0 -22 -13 7 -26 11 -30 10 -5 -1
-8 5 -8 13 0 19 10 19 38 -1z"/>
<path d="M915 2259 c-11 -4 -14 -8 -7 -8 7 -1 10 -6 7 -11 -4 -6 -10 -8 -15
-5 -11 7 -20 -31 -20 -85 0 -44 11 -75 23 -68 4 1 16 -5 27 -15 20 -16 21 -16
50 15 42 46 42 80 0 38 -29 -29 -68 -26 -76 6 -9 36 13 107 31 100 62 -23 114
-30 230 -28 150 2 191 -8 284 -68 34 -22 107 -84 163 -137 57 -54 126 -116
153 -138 28 -22 54 -47 59 -55 18 -29 80 -83 107 -92 20 -7 26 -15 25 -34 0
-13 -7 -24 -14 -24 -8 0 -10 -8 -7 -22 39 -174 30 -353 -21 -409 -23 -25 -72
-24 -100 2 -26 24 -44 18 -44 -15 0 -13 -9 -31 -21 -42 -21 -19 -79 -124 -79
-144 0 -5 6 -10 14 -10 8 0 24 -13 36 -30 54 -76 247 -129 467 -130 l142 0 1
345 c0 298 -2 345 -15 345 -9 0 -12 -6 -8 -16 9 -24 -13 -32 -60 -21 -137 32
-200 51 -212 63 -7 8 -22 14 -32 14 -20 0 -47 46 -32 56 6 3 18 0 27 -7 14
-11 15 -11 5 1 -7 8 -13 24 -13 36 0 20 6 22 68 26 68 4 122 23 130 45 3 10
-11 11 -57 6 -55 -5 -64 -4 -86 17 -14 13 -25 20 -25 16 0 -5 -7 -2 -16 5 -14
12 -16 11 -13 -6 3 -11 13 -21 23 -23 11 -2 26 -10 34 -18 8 -9 23 -12 40 -8
15 4 24 4 21 0 -4 -4 -29 -9 -55 -12 -27 -3 -54 -7 -61 -9 -6 -2 -19 5 -29 16
-9 10 -23 19 -30 19 -13 0 -63 47 -106 100 -16 19 -28 30 -28 25 0 -5 -6 0
-14 11 -8 10 -20 19 -28 19 -7 1 -12 6 -11 13 2 7 -4 12 -12 12 -8 0 -20 9
-27 20 -7 11 -18 20 -25 20 -6 0 -14 9 -18 20 -3 11 -11 19 -18 17 -6 -1 -16
8 -22 21 -5 12 -15 22 -22 22 -7 0 -17 9 -23 20 -12 22 -113 100 -130 100 -5
0 -10 4 -10 9 0 9 -44 28 -46 20 -1 -2 -10 3 -20 12 -29 25 -76 32 -234 34
-158 3 -188 6 -198 22 -4 6 -15 7 -27 2z m1147 -730 c21 -11 46 -19 57 -19 11
0 22 -4 25 -9 5 -7 81 -20 144 -25 l22 -1 0 -241 c0 -173 -3 -243 -12 -252 -9
-9 -9 -12 1 -12 8 0 11 -13 9 -42 -3 -37 -6 -43 -33 -50 -16 -4 -84 -6 -150
-3 -140 5 -145 6 -145 16 0 4 -8 5 -18 2 -10 -2 -31 1 -47 8 -17 7 -34 13 -40
13 -22 3 -55 18 -55 25 0 5 -13 11 -29 14 -18 4 -36 18 -47 37 -10 16 -22 30
-26 30 -25 0 25 116 54 125 10 4 17 9 17 13 -4 26 2 32 21 22 11 -6 20 -8 20
-4 0 3 6 2 13 -3 6 -5 17 -8 22 -8 24 4 74 27 72 33 -1 4 6 18 15 32 28 43 41
135 33 238 l-7 94 23 -7 c13 -4 41 -16 61 -26z"/>
<path d="M1775 2210 c4 -6 11 -8 16 -5 14 9 11 15 -7 15 -8 0 -12 -5 -9 -10z"/>
<path d="M1815 2201 c-3 -5 4 -12 15 -16 11 -3 20 -10 20 -15 0 -4 15 -10 33
-14 70 -13 113 -19 137 -21 53 -4 53 -4 41 -19 -15 -18 4 -32 48 -35 44 -2 37
6 -15 17 l-39 8 80 18 c44 10 95 24 113 32 40 16 43 37 5 28 -16 -3 -77 -11
-136 -17 -113 -11 -210 -1 -269 29 -15 8 -29 10 -33 5z"/>
<path d="M755 2176 c-11 -8 -14 -15 -8 -19 6 -4 16 0 23 8 17 21 8 28 -15 11z"/>
<path d="M1170 2051 c0 -5 7 -15 17 -22 32 -27 53 -91 52 -164 0 -69 -17 -143
-18 -84 -1 29 -76 149 -93 149 -6 0 -8 7 -5 15 4 8 2 17 -2 20 -20 12 -21 -29
-1 -47 15 -14 20 -31 20 -68 0 -27 8 -71 19 -97 10 -26 30 -100 45 -163 36
-157 45 -190 55 -190 5 0 14 42 20 93 7 50 21 131 31 179 11 48 23 125 26 171
l7 84 -39 42 c-36 41 -134 101 -134 82z m115 -101 c-3 -5 0 -10 7 -12 14 -5
12 -154 -3 -228 -5 -25 -14 -73 -21 -108 -6 -34 -16 -61 -21 -59 -6 2 -18 37
-27 78 -8 41 -19 79 -22 85 -4 6 -9 21 -12 35 -2 13 -7 36 -11 52 -4 15 -5 27
-1 27 8 0 36 -57 30 -62 -3 -3 2 -8 11 -11 31 -12 50 40 49 134 0 68 3 86 13
82 7 -3 11 -9 8 -13z"/>
<path d="M2214 2051 c9 -14 -55 -21 -97 -12 -28 7 -37 6 -34 -2 2 -7 8 -12 13
-13 61 -5 113 -47 144 -116 18 -40 18 -44 2 -63 -16 -19 -16 -19 1 -6 10 8 17
9 17 3 0 -21 -21 -24 -41 -6 -11 10 -30 19 -42 21 -11 2 -24 7 -27 11 -3 4
-12 7 -20 7 -8 -1 -20 2 -25 6 -6 4 -43 10 -82 13 -77 5 -102 -6 -79 -34 12
-15 116 -74 116 -66 0 2 -28 23 -62 46 l-63 42 50 -7 c117 -16 191 -38 233
-67 38 -27 46 -29 58 -16 13 12 12 22 -5 77 -11 35 -33 80 -50 101 l-30 38 34
6 c39 8 45 20 16 36 -24 12 -34 13 -27 1z"/>
<path d="M2180 1932 c0 -4 6 -16 13 -26 10 -14 14 -15 14 -4 0 7 -6 19 -14 26
-7 7 -13 9 -13 4z"/>
<path d="M1940 1800 c0 -7 24 -20 36 -20 13 0 1 19 -16 23 -11 3 -20 2 -20 -3z"/>
<path d="M1553 1686 c-105 -34 -175 -100 -193 -181 -8 -38 -3 -75 11 -75 4 0
33 18 65 40 78 55 141 74 224 68 132 -10 201 -66 208 -170 3 -41 9 -58 18 -58
11 0 14 18 14 78 0 191 -85 300 -238 308 -40 2 -84 -2 -109 -10z m187 -35 c0
-5 12 -14 28 -21 37 -16 78 -68 87 -109 l7 -33 -33 23 c-19 13 -36 27 -39 30
-7 9 -55 19 -114 25 -28 3 -56 7 -63 9 -7 2 -15 0 -17 -4 -3 -5 -16 -8 -29 -8
-13 0 -37 -8 -53 -16 -16 -9 -41 -21 -56 -28 -16 -6 -28 -14 -28 -18 0 -4 -11
-13 -24 -19 -22 -10 -24 -9 -21 8 7 38 38 91 59 102 11 6 28 18 36 27 8 9 26
18 40 19 14 2 29 8 35 13 12 12 185 12 185 0z"/>
<path d="M1168 1487 c-62 -52 -78 -154 -34 -218 14 -20 28 -47 31 -61 3 -13
13 -24 23 -24 16 0 16 3 -2 41 -11 22 -25 43 -30 47 -7 5 -7 8 -1 8 6 0 3 5
-5 10 -18 11 -18 105 0 150 16 39 28 39 22 0 -3 -23 1 -35 19 -49 13 -10 35
-28 48 -40 13 -12 31 -22 40 -23 9 -1 23 -2 31 -3 26 -2 58 -24 65 -45 3 -11
17 -23 31 -26 32 -8 30 -22 -3 -37 -15 -6 -36 -20 -46 -30 -10 -10 -25 -16
-32 -13 -7 2 -19 -2 -26 -10 -7 -8 -18 -13 -26 -10 -7 3 -13 1 -13 -5 0 -6 -7
-8 -16 -5 -8 3 -13 2 -10 -3 3 -5 -7 -11 -23 -13 -29 -4 -29 -4 -13 20 l16 25
-30 -15 c-46 -24 -97 -30 -131 -16 -41 17 -159 9 -155 -11 2 -8 -3 -11 -11 -8
-11 4 -14 -2 -13 -19 1 -20 3 -22 12 -9 6 8 16 15 22 15 6 0 12 4 14 10 3 11
71 15 103 6 11 -3 36 -10 55 -15 24 -6 28 -9 13 -10 -12 -1 -24 -9 -27 -19 -4
-13 -18 -19 -45 -20 -51 -3 -76 -8 -99 -21 -11 -6 -22 -7 -26 -4 -3 3 -6 1 -6
-5 0 -7 -6 -12 -14 -12 -8 0 -20 -16 -27 -34 -7 -19 -17 -32 -22 -29 -6 3 -7
1 -3 -5 4 -6 2 -20 -3 -30 -9 -16 -4 -25 27 -53 29 -27 33 -34 19 -37 -9 -2
-15 -8 -11 -13 7 -11 -17 -79 -28 -79 -4 0 -8 -6 -8 -13 0 -21 -24 -67 -35
-67 -14 0 -37 28 -52 63 -7 15 -13 63 -13 105 0 69 4 85 35 147 45 86 101 174
129 199 21 18 21 18 -4 4 -32 -19 -100 -114 -145 -204 -32 -64 -35 -78 -35
-154 0 -76 3 -88 37 -151 29 -54 40 -66 49 -57 7 7 37 60 67 117 l55 104 -35
33 c-29 28 -34 38 -29 60 18 69 80 111 149 100 36 -6 44 -3 71 23 22 21 54 36
111 50 89 24 222 76 246 97 22 20 51 17 120 -11 62 -25 64 -24 71 19 2 16 -8
23 -56 37 -46 14 -63 15 -74 7 -11 -10 -17 -7 -30 9 -10 11 -26 24 -37 27 -11
3 -27 19 -36 35 -13 23 -26 30 -63 35 -80 12 -150 100 -115 142 18 22 -3 16
-33 -9z m-151 -443 c-3 -3 -12 -4 -19 -1 -8 3 -5 6 6 6 11 1 17 -2 13 -5z"/>
<path d="M1385 1139 c-33 -16 -54 -29 -47 -29 7 0 27 7 44 16 47 24 75 27 88
7 9 -15 11 -15 7 -2 -5 14 0 15 31 8 44 -10 48 -12 45 -21 -2 -5 4 -8 12 -8 9
0 21 -12 28 -27 6 -16 15 -31 20 -34 16 -11 -16 -48 -40 -47 -13 2 -23 5 -23
8 0 11 -246 1 -280 -11 -19 -7 -36 -11 -37 -8 -2 2 -10 -6 -18 -18 -9 -13 -26
-23 -37 -23 -12 0 -19 -3 -15 -6 9 -9 -33 -45 -45 -38 -6 4 -8 3 -5 -3 7 -12
-48 -75 -57 -65 -4 3 -4 -2 0 -12 6 -15 4 -17 -7 -11 -8 4 -11 4 -6 0 4 -5 0
-17 -10 -27 -9 -10 -12 -18 -8 -18 4 0 1 -8 -7 -17 -8 -10 -23 -40 -32 -66
-14 -37 -15 -51 -6 -62 23 -28 19 -68 -10 -98 -15 -15 -36 -29 -48 -32 -12 -2
-29 -8 -38 -13 -34 -19 -54 -3 -54 42 0 23 4 46 8 52 5 5 19 36 32 69 42 107
154 319 188 356 22 25 48 41 80 49 26 6 58 16 72 20 14 5 45 14 69 20 23 6 41
14 38 16 -11 11 -211 -51 -251 -78 -38 -25 -52 -47 -124 -191 -88 -178 -142
-304 -142 -335 0 -33 41 -53 86 -41 58 16 114 51 129 79 11 21 11 31 -1 59
-20 49 -18 70 18 141 37 74 152 196 213 226 34 16 62 19 197 19 111 0 161 4
170 13 6 6 18 12 26 12 18 0 9 42 -20 89 -47 76 -130 91 -233 40z"/>
<path d="M1432 1104 c-12 -8 -22 -12 -22 -8 0 3 -6 1 -13 -5 -8 -6 -22 -12
-33 -14 -10 -1 -23 -5 -29 -8 -5 -4 -53 -17 -105 -29 -52 -13 -98 -28 -101
-33 -4 -5 -14 -7 -22 -4 -10 4 -17 -2 -21 -18 -4 -14 -15 -29 -26 -35 -11 -6
-20 -16 -20 -22 0 -6 13 2 28 19 26 26 112 71 112 58 0 -3 8 -1 18 4 9 5 31
11 47 14 54 9 195 59 195 69 0 5 5 6 10 3 6 -3 10 1 10 9 0 20 0 20 -28 0z"/>
<path d="M849 1090 c0 -3 -2 -14 -4 -25 -2 -11 -9 -21 -14 -23 -6 -2 -11 -10
-11 -17 0 -7 -5 -15 -11 -17 -7 -2 -10 -10 -7 -18 2 -8 13 1 28 26 13 21 27
41 31 44 5 3 4 12 -1 20 -6 8 -10 13 -11 10z"/>
<path d="M5 968 c17 -54 70 -169 112 -243 150 -261 395 -495 658 -628 126 -64
243 -108 230 -86 -10 15 -102 59 -109 52 -3 -4 -6 -2 -6 4 0 6 -15 13 -32 17
-18 4 -50 18 -70 31 -21 14 -42 25 -48 25 -6 0 -8 5 -4 12 4 6 3 8 -4 4 -5 -3
-41 14 -77 39 -37 25 -72 45 -76 45 -5 0 -9 4 -9 9 0 5 -16 19 -35 31 -43 27
-104 87 -96 96 3 3 0 4 -7 2 -15 -4 -162 150 -162 170 0 7 -4 11 -9 7 -5 -3
-13 5 -17 17 -4 13 -14 29 -23 36 -13 11 -13 12 -1 7 13 -6 13 -5 0 7 -26 23
-80 105 -73 112 3 3 1 6 -6 6 -7 0 -9 5 -6 10 3 6 2 10 -3 10 -10 0 -67 110
-64 123 1 4 -9 25 -23 47 -14 22 -25 44 -25 50 0 5 -5 10 -11 10 -6 0 -8 -9
-4 -22z"/>
<path d="M2979 967 c-9 -12 -19 -32 -23 -44 -4 -13 -12 -23 -17 -23 -6 0 -8
-4 -5 -8 3 -5 -2 -22 -10 -38 -9 -16 -15 -30 -15 -31 4 -14 -1 -23 -9 -18 -6
4 -10 3 -9 -2 3 -18 -2 -30 -21 -51 -12 -12 -18 -22 -15 -22 4 0 -3 -13 -14
-29 -12 -16 -21 -34 -21 -40 0 -5 -6 -14 -14 -18 -8 -4 -16 -14 -18 -22 -3
-13 -35 -55 -70 -92 -10 -11 -16 -19 -14 -19 2 0 -35 -41 -83 -90 -49 -49 -93
-90 -99 -90 -6 0 -13 -9 -17 -19 -3 -11 -14 -23 -24 -26 -9 -3 -26 -13 -37
-23 -31 -28 -166 -112 -181 -112 -8 0 -12 -4 -9 -8 3 -4 -25 -21 -62 -37 -37
-16 -98 -44 -137 -63 -61 -29 -65 -33 -33 -28 51 6 182 65 286 127 296 177
539 456 660 756 35 88 38 106 11 70z"/>
<path d="M1013 875 c0 -8 4 -12 9 -9 4 3 8 9 8 15 0 5 -4 9 -8 9 -5 0 -9 -7
-9 -15z"/>
<path d="M989 823 c-13 -16 -12 -17 4 -4 9 7 17 15 17 17 0 8 -8 3 -21 -13z"/>
<path d="M543 461 l-41 -69 45 -20 c67 -29 114 -7 84 39 -9 16 -8 19 7 19 27
0 43 20 32 40 -7 14 -72 60 -83 60 -1 0 -21 -31 -44 -69z m86 16 c13 -16 5
-27 -21 -27 -18 0 -25 20 -11 33 10 10 19 8 32 -6z m-29 -82 c-6 -7 -20 -11
-30 -8 -23 6 -24 8 -9 34 10 20 12 20 30 3 14 -12 16 -21 9 -29z"/>
<path d="M2402 513 c-36 -17 -51 -55 -32 -78 8 -9 30 -15 56 -15 24 0 44 -4
44 -8 0 -16 -25 -32 -49 -32 -24 0 -24 -1 -8 -17 16 -17 19 -16 52 1 45 25 55
54 25 78 -16 13 -32 17 -55 12 -44 -8 -53 11 -16 34 41 25 27 46 -17 25z"/>
<path d="M2235 434 c-16 -9 -31 -18 -33 -19 -2 -2 12 -33 30 -69 22 -45 38
-65 48 -63 8 2 13 10 11 18 -2 8 -6 22 -8 32 -7 22 15 22 46 -2 22 -17 61 -18
61 -1 0 4 -18 15 -39 25 -35 15 -38 20 -28 36 28 44 -32 73 -88 43z m58 -28
c3 -8 -1 -20 -10 -27 -13 -11 -17 -10 -29 6 -11 15 -11 20 -1 27 19 12 34 10
40 -6z"/>
<path d="M704 380 c-53 -51 -59 -60 -42 -66 10 -3 25 -1 33 6 22 18 65 2 65
-25 0 -19 27 -43 35 -33 8 10 13 168 6 168 -5 0 -15 2 -23 5 -7 3 -41 -22 -74
-55z m68 -5 c-4 -37 -8 -40 -32 -25 -12 7 -11 13 10 34 13 15 24 26 25 26 0 0
-1 -16 -3 -35z"/>
<path d="M880 389 c0 -5 0 -12 -1 -16 0 -4 17 -12 37 -18 l37 -10 -62 -39
c-34 -21 -60 -43 -58 -49 3 -10 88 -45 115 -46 30 -2 8 27 -29 38 l-40 12 59
39 c33 21 62 42 65 47 3 5 -23 19 -59 30 -35 12 -64 17 -64 12z"/>
<path d="M2058 360 c-25 -26 -29 -36 -24 -62 7 -38 23 -57 54 -69 29 -11 86
11 102 41 25 47 -21 120 -77 120 -14 0 -38 -13 -55 -30z m82 -20 c35 -35 20
-80 -27 -80 -39 0 -60 69 -25 89 24 15 29 14 52 -9z"/>
<path d="M1021 293 c-7 -32 -15 -68 -18 -80 -4 -18 -1 -23 15 -23 14 0 21 9
26 31 7 36 21 31 41 -17 16 -39 51 -49 39 -11 -3 12 -10 28 -14 36 -4 8 2 22
17 37 30 30 18 59 -29 69 -18 4 -40 8 -48 11 -12 3 -19 -10 -29 -53z m83 -8
c-9 -22 -44 -19 -44 3 0 26 10 33 31 21 10 -5 16 -16 13 -24z"/>
<path d="M1955 343 c-75 -17 -96 -25 -92 -36 2 -7 15 -11 29 -9 23 3 26 -1 38
-57 8 -37 18 -61 26 -61 22 0 24 14 9 71 -19 70 -19 69 10 69 18 0 23 4 19 15
-4 8 -9 14 -13 14 -3 -1 -15 -3 -26 -6z"/>
<path d="M1201 241 c-23 -38 -41 -72 -41 -75 0 -13 41 -5 46 9 9 23 65 20 71
-4 5 -18 31 -36 40 -28 2 2 -5 39 -15 83 -15 66 -21 80 -39 82 -17 3 -29 -11
-62 -67z m62 2 c6 -28 4 -33 -13 -33 -23 0 -25 9 -8 45 13 30 13 30 21 -12z"/>
<path d="M1716 289 c-35 -28 -36 -80 -1 -114 49 -50 135 -17 135 51 0 71 -77
108 -134 63z m83 -23 c31 -37 -9 -103 -46 -80 -37 23 -24 94 17 94 10 0 23 -6
29 -14z"/>
<path d="M1610 290 c-19 -4 -28 -17 -41 -60 -10 -34 -19 -49 -23 -40 -3 8 -12
33 -19 55 -12 35 -18 40 -47 43 -32 3 -33 3 -26 -29 3 -17 6 -53 6 -79 0 -36
4 -47 16 -47 14 0 16 10 11 65 -6 72 2 71 29 -5 26 -75 47 -72 73 10 l20 62 0
-62 c1 -57 3 -63 22 -63 20 0 20 4 16 75 -2 42 -6 77 -8 79 -2 1 -15 0 -29 -4z"/>
</g>
</svg>
