<?xml version="1.0" encoding="UTF-8"?>
<svg xmlns="http://www.w3.org/2000/svg" xmlns:xlink="http://www.w3.org/1999/xlink" width="90px" height="90px" viewBox="0 0 90 90" version="1.1">
<g id="surface1">
<path style=" stroke:none;fill-rule:nonzero;fill:rgb(0%,0%,0%);fill-opacity:1;" d="M 27.238281 0.300781 C 26.789062 0.421875 25.199219 1.171875 23.699219 1.921875 C 16.199219 5.640625 9.898438 11.25 5.101562 18.421875 C 3.570312 20.699219 0.539062 26.761719 0.210938 28.140625 C -0.0898438 29.460938 0.691406 28.410156 1.859375 25.921875 C 2.488281 24.539062 3.148438 23.339844 3.300781 23.25 C 3.480469 23.160156 3.601562 22.828125 3.601562 22.53125 C 3.601562 22.230469 3.808594 21.808594 4.050781 21.601562 C 4.289062 21.390625 4.441406 21.148438 4.378906 21.03125 C 4.289062 20.910156 4.949219 19.890625 5.789062 18.75 C 6.660156 17.640625 7.621094 16.261719 7.949219 15.75 C 9.03125 14.070312 12.808594 10.019531 13.230469 10.140625 C 13.378906 10.171875 13.5 10.078125 13.5 9.929688 C 13.5 9.449219 17.128906 6.601562 17.460938 6.808594 C 17.671875 6.929688 17.699219 6.839844 17.578125 6.628906 C 17.429688 6.390625 17.578125 6.210938 17.96875 6.089844 C 18.328125 6 18.601562 5.789062 18.601562 5.640625 C 18.601562 5.488281 18.75 5.460938 18.898438 5.550781 C 19.078125 5.640625 19.199219 5.609375 19.199219 5.460938 C 19.199219 5.308594 19.738281 4.949219 20.371094 4.648438 C 21.03125 4.351562 21.628906 3.929688 21.71875 3.71875 C 21.808594 3.480469 22.171875 3.300781 22.5 3.300781 C 22.828125 3.300781 23.101562 3.179688 23.101562 3.03125 C 23.101562 2.789062 24.210938 2.308594 24.691406 2.371094 C 24.808594 2.398438 24.898438 2.25 24.898438 2.101562 C 24.898438 1.921875 24.988281 1.828125 25.140625 1.859375 C 25.261719 1.890625 25.648438 1.769531 25.980469 1.558594 C 26.339844 1.378906 26.671875 1.289062 26.761719 1.351562 C 26.851562 1.441406 27.210938 1.171875 27.601562 0.75 C 27.988281 0.328125 28.261719 0 28.171875 0.03125 C 28.109375 0.03125 27.691406 0.148438 27.238281 0.300781 Z M 27.238281 0.300781 "/>
<path style=" stroke:none;fill-rule:nonzero;fill:rgb(0%,0%,0%);fill-opacity:1;" d="M 61.980469 0.421875 C 62.128906 0.78125 62.851562 1.261719 63.089844 1.140625 C 63.121094 1.109375 63.480469 1.289062 63.898438 1.5 C 64.320312 1.738281 64.800781 1.949219 65.011719 1.980469 C 65.21875 2.011719 65.761719 2.308594 66.210938 2.609375 C 66.660156 2.941406 67.949219 3.628906 69.058594 4.199219 C 70.171875 4.738281 71.011719 5.308594 70.921875 5.460938 C 70.828125 5.578125 70.890625 5.699219 71.070312 5.699219 C 71.429688 5.699219 73.351562 6.960938 74.460938 7.980469 C 74.910156 8.371094 75.390625 8.699219 75.511719 8.699219 C 75.660156 8.699219 76.199219 9.238281 76.769531 9.898438 C 77.339844 10.558594 77.910156 11.011719 78.058594 10.921875 C 78.179688 10.828125 78.300781 10.890625 78.300781 11.039062 C 78.300781 11.191406 78.78125 11.789062 79.351562 12.390625 C 79.921875 12.988281 80.398438 13.53125 80.398438 13.589844 C 80.398438 13.679688 80.878906 14.25 81.449219 14.878906 C 82.019531 15.511719 82.5 16.230469 82.5 16.46875 C 82.5 16.710938 82.589844 16.800781 82.679688 16.710938 C 82.890625 16.53125 83.699219 17.429688 84.121094 18.300781 C 84.238281 18.539062 84.660156 19.289062 85.050781 19.949219 C 86.011719 21.511719 88.378906 26.339844 88.648438 27.300781 C 88.769531 27.691406 89.070312 28.199219 89.28125 28.441406 C 89.519531 28.648438 89.609375 28.980469 89.519531 29.160156 C 89.398438 29.339844 89.460938 29.398438 89.640625 29.28125 C 90.058594 29.011719 89.820312 27.808594 88.859375 25.648438 C 84.179688 15.058594 75.960938 6.480469 65.851562 1.648438 C 62.460938 0.03125 61.738281 -0.179688 61.980469 0.421875 Z M 61.980469 0.421875 "/>
<path style=" stroke:none;fill-rule:nonzero;fill:rgb(0%,0%,0%);fill-opacity:1;" d="M 44.578125 4.679688 C 44.308594 4.921875 44.101562 5.550781 44.101562 6.03125 C 44.101562 6.808594 44.21875 6.898438 45 6.898438 C 45.808594 6.898438 45.871094 6.960938 45.71875 7.800781 C 45.539062 8.578125 45.601562 8.699219 46.171875 8.699219 C 46.738281 8.699219 46.800781 8.550781 46.800781 6.75 C 46.800781 5.671875 46.921875 4.800781 47.101562 4.800781 C 47.25 4.800781 47.308594 5.191406 47.21875 5.699219 C 47.039062 6.539062 47.070312 6.601562 47.941406 6.601562 C 48.449219 6.601562 49.050781 6.691406 49.320312 6.78125 C 50.128906 7.078125 49.949219 5.25 49.140625 4.679688 C 48.238281 4.019531 45.210938 4.019531 44.578125 4.679688 Z M 45.898438 5.550781 C 45.898438 6.03125 45.71875 6.300781 45.449219 6.300781 C 45 6.300781 44.820312 5.371094 45.210938 5.011719 C 45.601562 4.589844 45.898438 4.828125 45.898438 5.550781 Z M 48.898438 5.730469 C 48.898438 6.089844 48.75 6.300781 48.570312 6.238281 C 48.390625 6.179688 48.269531 6.03125 48.269531 5.910156 C 48.300781 5.789062 48.300781 5.488281 48.300781 5.21875 C 48.300781 4.980469 48.449219 4.859375 48.601562 4.949219 C 48.78125 5.039062 48.898438 5.398438 48.898438 5.730469 Z M 48.898438 5.730469 "/>
<path style=" stroke:none;fill-rule:nonzero;fill:rgb(0%,0%,0%);fill-opacity:1;" d="M 37.5 5.28125 C 37.320312 5.699219 36.871094 6.480469 36.449219 7.019531 C 35.128906 8.730469 35.578125 9.78125 37.46875 9.449219 C 38.519531 9.269531 38.699219 9.148438 38.699219 8.519531 C 38.699219 7.800781 39.121094 7.558594 39.449219 8.101562 C 39.570312 8.28125 39.78125 8.339844 39.929688 8.25 C 40.289062 8.011719 40.289062 6.898438 39.929688 6.898438 C 39.121094 6.898438 38.070312 7.589844 37.800781 8.25 C 37.5 9.03125 37.078125 9.210938 36.71875 8.671875 C 36.628906 8.488281 36.960938 7.769531 37.46875 7.050781 C 38.371094 5.761719 38.699219 4.5 38.101562 4.5 C 37.921875 4.5 37.648438 4.859375 37.5 5.28125 Z M 37.5 5.28125 "/>
<path style=" stroke:none;fill-rule:nonzero;fill:rgb(0%,0%,0%);fill-opacity:1;" d="M 53.191406 5.398438 C 53.039062 6.148438 52.921875 6.269531 52.320312 6.121094 C 51.808594 6 51.539062 6.089844 51.421875 6.449219 C 51.148438 7.171875 51.898438 7.589844 52.351562 6.988281 C 52.859375 6.300781 53.101562 6.898438 52.800781 8.191406 C 52.589844 9.148438 52.648438 9.300781 53.101562 9.300781 C 53.488281 9.300781 53.671875 8.96875 53.820312 8.101562 C 54 6.960938 54.601562 6.390625 54.601562 7.378906 C 54.601562 7.980469 55.320312 7.769531 55.441406 7.140625 C 55.5 6.839844 55.230469 6.601562 54.75 6.480469 C 54.121094 6.328125 54.03125 6.148438 54.179688 5.578125 C 54.300781 5.101562 54.210938 4.828125 53.851562 4.710938 C 53.519531 4.558594 53.339844 4.738281 53.191406 5.398438 Z M 53.191406 5.398438 "/>
<path style=" stroke:none;fill-rule:nonzero;fill:rgb(0%,0%,0%);fill-opacity:1;" d="M 32.671875 5.609375 C 32.640625 5.730469 32.609375 6.179688 32.578125 6.570312 C 32.550781 7.441406 31.890625 7.769531 31.738281 6.960938 C 31.648438 6.480469 31.5 6.449219 30.691406 6.660156 C 30 6.839844 29.699219 7.078125 29.699219 7.5 C 29.699219 8.25 30.511719 8.308594 30.691406 7.558594 C 30.839844 6.960938 30.898438 7.140625 31.46875 9.210938 C 31.710938 10.050781 32.011719 10.5 32.28125 10.5 C 32.761719 10.5 32.730469 10.109375 32.21875 8.308594 C 32.101562 7.980469 32.21875 7.800781 32.519531 7.800781 C 32.789062 7.800781 33.089844 8.25 33.300781 9 C 33.601562 10.140625 33.988281 10.5 34.320312 9.960938 C 34.558594 9.570312 33.449219 5.609375 33.058594 5.460938 C 32.851562 5.398438 32.671875 5.460938 32.671875 5.609375 Z M 32.671875 5.609375 "/>
<path style=" stroke:none;fill-rule:nonzero;fill:rgb(0%,0%,0%);fill-opacity:1;" d="M 57.78125 6.570312 C 57.480469 6.898438 57.058594 7.738281 56.851562 8.488281 C 56.398438 9.960938 56.550781 10.199219 57.929688 10.199219 C 58.261719 10.199219 58.589844 10.410156 58.679688 10.648438 C 58.949219 11.308594 59.699219 11.191406 59.699219 10.5 C 59.699219 10.078125 59.488281 9.898438 59.039062 9.898438 C 57.71875 9.898438 57.449219 9.480469 57.929688 8.21875 C 58.378906 6.988281 59.371094 6.179688 59.609375 6.808594 C 59.851562 7.441406 60.78125 7.261719 60.808594 6.601562 C 60.871094 6.089844 60.691406 6 59.578125 6 C 58.710938 6 58.140625 6.179688 57.78125 6.570312 Z M 57.78125 6.570312 "/>
<path style=" stroke:none;fill-rule:nonzero;fill:rgb(0%,0%,0%);fill-opacity:1;" d="M 63.210938 6.871094 C 63.300781 7.230469 63.148438 7.558594 62.761719 7.769531 C 62.128906 8.101562 61.050781 10.621094 61.351562 11.101562 C 61.710938 11.671875 61.980469 11.398438 62.519531 9.898438 C 63.121094 8.25 63.480469 7.859375 63.988281 8.371094 C 64.261719 8.640625 64.199219 9.089844 63.808594 10.171875 C 63.179688 11.941406 63.179688 12 63.71875 12 C 64.171875 12 65.101562 9.988281 65.101562 9.03125 C 65.101562 8.730469 64.890625 8.308594 64.648438 8.101562 C 64.410156 7.890625 64.199219 7.5 64.199219 7.199219 C 64.199219 6.898438 63.988281 6.570312 63.71875 6.480469 C 63.058594 6.210938 63.03125 6.238281 63.210938 6.871094 Z M 63.210938 6.871094 "/>
<path style=" stroke:none;fill-rule:nonzero;fill:rgb(0%,0%,0%);fill-opacity:1;" d="M 25.921875 7.5 C 25.558594 7.621094 25.230469 7.921875 25.140625 8.160156 C 24.871094 8.820312 25.769531 11.398438 26.25 11.398438 C 26.820312 11.398438 26.820312 11.191406 26.25 9.570312 C 25.890625 8.578125 25.859375 8.25 26.160156 8.070312 C 26.730469 7.710938 27.210938 8.308594 27.78125 9.988281 C 28.378906 11.851562 28.320312 11.761719 28.859375 11.550781 C 29.28125 11.398438 29.25 11.160156 28.738281 9.808594 C 27.808594 7.378906 27.269531 6.929688 25.921875 7.5 Z M 25.921875 7.5 "/>
<path style=" stroke:none;fill-rule:nonzero;fill:rgb(0%,0%,0%);fill-opacity:1;" d="M 46.949219 17.550781 C 45.988281 18.628906 45.269531 19.140625 44.910156 19.078125 C 44.640625 19.019531 44.460938 19.078125 44.550781 19.199219 C 44.640625 19.351562 44.21875 19.621094 43.589844 19.769531 C 39.089844 20.96875 36.480469 21.089844 33.660156 20.21875 C 32.28125 19.800781 31.109375 19.769531 28.890625 20.128906 C 28.710938 20.160156 28.410156 20.519531 28.230469 20.910156 C 27.988281 21.449219 27.988281 21.601562 28.351562 21.601562 C 28.589844 21.601562 28.800781 21.390625 28.800781 21.148438 C 28.800781 20.820312 29.25 20.761719 31.140625 20.851562 C 32.398438 20.910156 34.261719 21.121094 35.25 21.300781 C 37.230469 21.691406 41.011719 21.511719 41.519531 21 C 41.671875 20.851562 42.121094 20.699219 42.449219 20.699219 C 42.808594 20.699219 43.53125 20.488281 44.039062 20.25 C 44.550781 19.980469 45.300781 19.828125 45.75 19.921875 C 46.171875 20.011719 46.828125 19.949219 47.191406 19.769531 C 47.789062 19.5 47.789062 19.5 47.039062 19.589844 C 46.558594 19.679688 46.199219 19.679688 46.199219 19.648438 C 46.199219 19.621094 46.859375 18.871094 47.699219 17.96875 C 48.511719 17.070312 49.199219 16.261719 49.199219 16.109375 C 49.199219 15.511719 48.300781 16.109375 46.949219 17.550781 Z M 46.949219 17.550781 "/>
<path style=" stroke:none;fill-rule:nonzero;fill:rgb(0%,0%,0%);fill-opacity:1;" d="M 24.898438 18.570312 C 24.511719 19.320312 24.511719 20.699219 24.898438 20.699219 C 25.078125 20.699219 25.199219 20.910156 25.199219 21.148438 C 25.199219 21.390625 25.078125 21.601562 24.898438 21.601562 C 24.75 21.601562 24.601562 21.75 24.601562 21.898438 C 24.601562 22.109375 24.78125 22.109375 25.140625 21.929688 C 25.53125 21.71875 25.828125 21.75 26.070312 21.988281 C 26.371094 22.261719 26.398438 22.230469 26.25 21.808594 C 26.128906 21.539062 25.890625 21.300781 25.679688 21.300781 C 25.46875 21.300781 25.5 21.179688 25.769531 21.03125 C 26.070312 20.820312 26.039062 20.699219 25.53125 20.339844 C 24.960938 19.921875 24.871094 19.078125 25.351562 18.300781 C 25.441406 18.121094 25.46875 18 25.378906 18 C 25.289062 18 25.078125 18.269531 24.898438 18.570312 Z M 24.898438 18.570312 "/>
<path style=" stroke:none;fill-rule:nonzero;fill:rgb(0%,0%,0%);fill-opacity:1;" d="M 57.449219 18.898438 C 56.609375 19.019531 55.199219 19.320312 54.300781 19.589844 C 53.398438 19.859375 51.058594 20.28125 49.078125 20.578125 C 46.621094 20.941406 45.71875 21.179688 46.171875 21.328125 C 46.5 21.480469 47.21875 21.511719 47.761719 21.449219 C 48.300781 21.390625 49.261719 21.238281 49.921875 21.179688 C 52.621094 20.820312 53.550781 20.640625 54.058594 20.371094 C 54.421875 20.191406 54.601562 20.191406 54.601562 20.398438 C 54.601562 20.550781 54.421875 20.699219 54.179688 20.699219 C 53.820312 20.699219 53.25 21.570312 53.460938 21.75 C 53.699219 21.988281 55.859375 23.101562 56.039062 23.101562 C 56.128906 23.101562 55.710938 22.738281 55.078125 22.320312 L 53.910156 21.511719 L 55.261719 20.820312 C 56.011719 20.429688 57.871094 19.921875 59.429688 19.648438 C 60.988281 19.378906 62.371094 19.019531 62.550781 18.871094 C 62.878906 18.539062 59.730469 18.570312 57.449219 18.898438 Z M 57.449219 18.898438 "/>
<path style=" stroke:none;fill-rule:nonzero;fill:rgb(0%,0%,0%);fill-opacity:1;" d="M 25.980469 19.648438 C 26.25 20.070312 26.519531 20.398438 26.578125 20.398438 C 26.640625 20.398438 26.519531 20.070312 26.339844 19.648438 C 26.160156 19.230469 25.890625 18.898438 25.738281 18.898438 C 25.589844 18.898438 25.710938 19.230469 25.980469 19.648438 Z M 25.980469 19.648438 "/>
<path style=" stroke:none;fill-rule:nonzero;fill:rgb(0%,0%,0%);fill-opacity:1;" d="M 27.988281 19.261719 C 27.269531 20.21875 27.269531 20.488281 27.988281 19.828125 C 28.441406 19.410156 28.800781 19.050781 28.800781 18.988281 C 28.800781 18.75 28.230469 18.929688 27.988281 19.261719 Z M 27.988281 19.261719 "/>
<path style=" stroke:none;fill-rule:nonzero;fill:rgb(0%,0%,0%);fill-opacity:1;" d="M 22.800781 21.300781 C 22.800781 22.589844 22.679688 23.101562 22.410156 23.101562 C 21.78125 23.101562 20.730469 24.390625 20.519531 25.410156 C 20.398438 26.101562 20.519531 26.789062 21 27.78125 C 21.601562 29.011719 21.660156 29.371094 21.390625 30.808594 C 21.179688 32.039062 21.179688 32.488281 21.449219 32.578125 C 21.691406 32.699219 21.75 33.691406 21.660156 36.238281 C 21.480469 41.191406 21.480469 41.011719 21.539062 43.679688 C 21.601562 46.441406 21.480469 46.289062 24.300781 46.949219 C 25.921875 47.339844 25.980469 47.339844 27.148438 46.558594 C 28.710938 45.511719 28.738281 45.449219 28.710938 43.890625 C 28.710938 42.75 28.949219 42.210938 30.570312 39.871094 C 33.148438 36.148438 33.359375 35.550781 32.941406 33.449219 L 32.609375 31.769531 L 31.949219 34.378906 C 31.441406 36.449219 31.109375 37.140625 30.390625 37.769531 C 28.949219 39.03125 27.660156 41.371094 27.421875 43.199219 C 27.300781 44.101562 27 45.148438 26.730469 45.511719 C 26.21875 46.230469 24.898438 46.441406 24.898438 45.808594 C 24.898438 45.328125 23.789062 44.28125 23.039062 44.011719 C 22.621094 43.859375 22.558594 43.621094 22.710938 42.839844 C 23.039062 41.039062 23.339844 40.53125 23.910156 40.679688 C 24.210938 40.769531 24.839844 40.710938 25.289062 40.53125 C 26.039062 40.230469 26.101562 40.078125 26.101562 38.640625 C 26.101562 36.839844 25.621094 34.800781 25.199219 34.800781 C 25.019531 34.800781 24.898438 34.648438 24.898438 34.46875 C 24.898438 34.320312 25.019531 34.230469 25.171875 34.320312 C 25.320312 34.410156 25.800781 34.199219 26.21875 33.871094 C 26.851562 33.390625 27 33 26.941406 32.308594 C 26.820312 31.199219 25.921875 30.511719 25.5 31.199219 C 25.320312 31.441406 25.230469 31.921875 25.261719 32.25 C 25.351562 33 24.960938 33.660156 24.570312 33.449219 C 23.851562 33 24.628906 29.941406 25.558594 29.609375 C 25.769531 29.550781 26.460938 29.730469 27.058594 30.03125 C 28.171875 30.601562 30.78125 30.839844 30.480469 30.359375 C 30.390625 30.210938 30.71875 29.699219 31.199219 29.25 C 32.519531 27.988281 32.371094 27.421875 30.988281 28.289062 C 29.011719 29.519531 28.921875 29.519531 30.238281 28.261719 C 30.960938 27.601562 31.46875 26.910156 31.378906 26.761719 C 31.199219 26.460938 28.800781 28.589844 28.800781 29.070312 C 28.800781 29.21875 28.589844 29.429688 28.320312 29.519531 C 27.660156 29.761719 27.539062 29.761719 27.71875 29.429688 C 27.929688 29.128906 26.25 28.621094 25.53125 28.769531 C 24.121094 29.039062 22.921875 32.070312 23.671875 33.539062 C 23.820312 33.808594 24.179688 34.589844 24.511719 35.25 C 24.871094 35.941406 25.140625 37.171875 25.171875 38.160156 L 25.230469 39.898438 L 24.390625 39.71875 C 23.699219 39.601562 23.339844 39.71875 22.648438 40.410156 C 22.199219 40.859375 21.898438 41.101562 21.988281 40.890625 C 22.171875 40.621094 22.261719 35.488281 22.199219 31.5 C 22.171875 30.929688 22.171875 30 22.199219 29.429688 C 22.199219 28.890625 21.988281 28.078125 21.75 27.691406 C 21.179688 26.851562 20.910156 25.710938 21.300781 25.949219 C 21.449219 26.039062 21.628906 25.980469 21.75 25.800781 C 21.839844 25.648438 21.78125 25.5 21.601562 25.5 C 20.941406 25.5 21.421875 23.878906 22.199219 23.488281 C 22.621094 23.28125 23.160156 22.859375 23.429688 22.53125 C 23.699219 22.199219 24 22.019531 24.121094 22.109375 C 24.210938 22.230469 24.300781 22.199219 24.300781 22.078125 C 24.300781 21.960938 24.089844 21.660156 23.851562 21.421875 C 23.609375 21.148438 23.398438 20.761719 23.398438 20.488281 C 23.398438 20.101562 23.488281 20.101562 23.941406 20.429688 C 24.359375 20.761719 24.328125 20.730469 23.878906 20.160156 C 23.011719 19.140625 22.800781 19.351562 22.800781 21.300781 Z M 23.339844 45.179688 C 24.210938 45.78125 24.210938 46.320312 23.339844 45.839844 C 22.949219 45.628906 22.558594 45.511719 22.441406 45.539062 C 22.289062 45.570312 22.199219 45.390625 22.199219 45.148438 C 22.199219 44.578125 22.5 44.578125 23.339844 45.179688 Z M 23.339844 45.179688 "/>
<path style=" stroke:none;fill-rule:nonzero;fill:rgb(0%,0%,0%);fill-opacity:1;" d="M 27.449219 22.230469 C 27.121094 22.351562 27.03125 22.46875 27.238281 22.46875 C 27.449219 22.5 27.539062 22.648438 27.449219 22.800781 C 27.328125 22.980469 27.148438 23.039062 27 22.949219 C 26.671875 22.738281 26.398438 23.878906 26.398438 25.5 C 26.398438 26.820312 26.730469 27.75 27.089844 27.539062 C 27.210938 27.511719 27.570312 27.691406 27.898438 27.988281 C 28.5 28.46875 28.53125 28.46875 29.398438 27.539062 C 30.660156 26.160156 30.660156 25.140625 29.398438 26.398438 C 28.53125 27.269531 27.359375 27.179688 27.121094 26.21875 C 26.851562 25.140625 27.511719 23.011719 28.050781 23.21875 C 29.910156 23.910156 31.46875 24.121094 34.949219 24.058594 C 39.449219 24 40.679688 24.300781 43.46875 26.101562 C 44.488281 26.761719 46.679688 28.621094 48.359375 30.210938 C 50.070312 31.828125 52.140625 33.691406 52.949219 34.351562 C 53.789062 35.011719 54.570312 35.761719 54.71875 36 C 55.261719 36.871094 57.121094 38.488281 57.929688 38.761719 C 58.53125 38.96875 58.710938 39.210938 58.679688 39.78125 C 58.679688 40.171875 58.46875 40.5 58.261719 40.5 C 58.019531 40.5 57.960938 40.738281 58.050781 41.160156 C 59.21875 46.378906 58.949219 51.75 57.421875 53.429688 C 56.730469 54.179688 55.261719 54.148438 54.421875 53.371094 C 53.640625 52.648438 53.101562 52.828125 53.101562 53.820312 C 53.101562 54.210938 52.828125 54.75 52.46875 55.078125 C 51.839844 55.648438 50.101562 58.800781 50.101562 59.398438 C 50.101562 59.550781 50.28125 59.699219 50.519531 59.699219 C 50.761719 59.699219 51.238281 60.089844 51.601562 60.601562 C 53.21875 62.878906 59.011719 64.46875 65.609375 64.5 L 69.871094 64.5 L 69.898438 54.148438 C 69.898438 45.210938 69.839844 43.800781 69.449219 43.800781 C 69.179688 43.800781 69.089844 43.980469 69.210938 44.28125 C 69.480469 45 68.820312 45.238281 67.410156 44.910156 C 63.300781 43.949219 61.410156 43.378906 61.050781 43.019531 C 60.839844 42.78125 60.390625 42.601562 60.089844 42.601562 C 59.488281 42.601562 58.679688 41.21875 59.128906 40.921875 C 59.308594 40.828125 59.671875 40.921875 59.941406 41.128906 C 60.359375 41.460938 60.390625 41.460938 60.089844 41.101562 C 59.878906 40.859375 59.699219 40.378906 59.699219 40.019531 C 59.699219 39.421875 59.878906 39.359375 61.738281 39.238281 C 63.78125 39.121094 65.398438 38.550781 65.640625 37.890625 C 65.730469 37.589844 65.308594 37.558594 63.929688 37.710938 C 62.28125 37.859375 62.011719 37.828125 61.351562 37.199219 C 60.929688 36.808594 60.601562 36.601562 60.601562 36.71875 C 60.601562 36.871094 60.390625 36.78125 60.121094 36.570312 C 59.699219 36.210938 59.640625 36.238281 59.730469 36.75 C 59.820312 37.078125 60.121094 37.378906 60.421875 37.441406 C 60.75 37.5 61.199219 37.738281 61.441406 37.980469 C 61.679688 38.25 62.128906 38.339844 62.640625 38.21875 C 63.089844 38.101562 63.359375 38.101562 63.269531 38.21875 C 63.148438 38.339844 62.398438 38.488281 61.621094 38.578125 C 60.808594 38.671875 60 38.789062 59.789062 38.851562 C 59.609375 38.910156 59.21875 38.699219 58.921875 38.371094 C 58.648438 38.070312 58.230469 37.800781 58.019531 37.800781 C 57.628906 37.800781 56.128906 36.390625 54.839844 34.800781 C 54.359375 34.230469 54 33.898438 54 34.050781 C 54 34.199219 53.820312 34.050781 53.578125 33.71875 C 53.339844 33.421875 52.980469 33.148438 52.738281 33.148438 C 52.53125 33.121094 52.378906 32.96875 52.410156 32.761719 C 52.46875 32.550781 52.289062 32.398438 52.050781 32.398438 C 51.808594 32.398438 51.449219 32.128906 51.238281 31.800781 C 51.03125 31.46875 50.699219 31.199219 50.488281 31.199219 C 50.308594 31.199219 50.070312 30.929688 49.949219 30.601562 C 49.859375 30.269531 49.621094 30.03125 49.410156 30.089844 C 49.230469 30.121094 48.929688 29.851562 48.75 29.460938 C 48.601562 29.101562 48.300781 28.800781 48.089844 28.800781 C 47.878906 28.800781 47.578125 28.53125 47.398438 28.199219 C 47.039062 27.539062 44.011719 25.199219 43.5 25.199219 C 43.351562 25.199219 43.199219 25.078125 43.199219 24.929688 C 43.199219 24.660156 41.878906 24.089844 41.820312 24.328125 C 41.789062 24.390625 41.519531 24.238281 41.21875 23.96875 C 40.351562 23.21875 38.941406 23.011719 34.199219 22.949219 C 29.460938 22.859375 28.558594 22.769531 28.261719 22.289062 C 28.140625 22.109375 27.808594 22.078125 27.449219 22.230469 Z M 61.859375 44.128906 C 62.488281 44.460938 63.238281 44.699219 63.570312 44.699219 C 63.898438 44.699219 64.230469 44.820312 64.320312 44.96875 C 64.46875 45.179688 66.75 45.570312 68.640625 45.71875 L 69.300781 45.75 L 69.300781 52.980469 C 69.300781 58.171875 69.210938 60.269531 68.941406 60.539062 C 68.671875 60.808594 68.671875 60.898438 68.96875 60.898438 C 69.210938 60.898438 69.300781 61.289062 69.238281 62.160156 C 69.148438 63.269531 69.058594 63.449219 68.25 63.660156 C 67.769531 63.78125 65.730469 63.839844 63.75 63.75 C 59.550781 63.601562 59.398438 63.570312 59.398438 63.269531 C 59.398438 63.148438 59.160156 63.121094 58.859375 63.210938 C 58.558594 63.269531 57.929688 63.179688 57.449219 62.96875 C 56.941406 62.761719 56.429688 62.578125 56.25 62.578125 C 55.589844 62.488281 54.601562 62.039062 54.601562 61.828125 C 54.601562 61.679688 54.210938 61.5 53.730469 61.410156 C 53.191406 61.289062 52.648438 60.871094 52.320312 60.300781 C 52.019531 59.820312 51.660156 59.398438 51.539062 59.398438 C 50.789062 59.398438 52.289062 55.921875 53.160156 55.648438 C 53.460938 55.53125 53.671875 55.378906 53.671875 55.261719 C 53.550781 54.480469 53.730469 54.300781 54.300781 54.601562 C 54.628906 54.78125 54.898438 54.839844 54.898438 54.71875 C 54.898438 54.628906 55.078125 54.660156 55.289062 54.808594 C 55.46875 54.960938 55.800781 55.050781 55.949219 55.050781 C 56.671875 54.929688 58.171875 54.238281 58.109375 54.058594 C 58.078125 53.941406 58.289062 53.519531 58.558594 53.101562 C 59.398438 51.808594 59.789062 49.050781 59.550781 45.960938 L 59.339844 43.140625 L 60.03125 43.351562 C 60.421875 43.46875 61.261719 43.828125 61.859375 44.128906 Z M 61.859375 44.128906 "/>
<path style=" stroke:none;fill-rule:nonzero;fill:rgb(0%,0%,0%);fill-opacity:1;" d="M 53.25 23.699219 C 53.371094 23.878906 53.578125 23.941406 53.730469 23.851562 C 54.148438 23.578125 54.058594 23.398438 53.519531 23.398438 C 53.28125 23.398438 53.160156 23.550781 53.25 23.699219 Z M 53.25 23.699219 "/>
<path style=" stroke:none;fill-rule:nonzero;fill:rgb(0%,0%,0%);fill-opacity:1;" d="M 54.449219 23.96875 C 54.359375 24.121094 54.570312 24.328125 54.898438 24.449219 C 55.230469 24.539062 55.5 24.75 55.5 24.898438 C 55.5 25.019531 55.949219 25.199219 56.488281 25.320312 C 58.589844 25.710938 59.878906 25.890625 60.601562 25.949219 C 62.191406 26.070312 62.191406 26.070312 61.828125 26.519531 C 61.378906 27.058594 61.949219 27.480469 63.269531 27.570312 C 64.589844 27.628906 64.378906 27.390625 62.820312 27.058594 L 61.648438 26.820312 L 64.050781 26.28125 C 65.371094 25.980469 66.898438 25.558594 67.441406 25.320312 C 68.640625 24.839844 68.730469 24.210938 67.589844 24.480469 C 67.109375 24.570312 65.28125 24.808594 63.511719 24.988281 C 60.121094 25.320312 57.210938 25.019531 55.441406 24.121094 C 54.988281 23.878906 54.570312 23.820312 54.449219 23.96875 Z M 54.449219 23.96875 "/>
<path style=" stroke:none;fill-rule:nonzero;fill:rgb(0%,0%,0%);fill-opacity:1;" d="M 22.648438 24.71875 C 22.320312 24.960938 22.230469 25.171875 22.410156 25.289062 C 22.589844 25.410156 22.890625 25.289062 23.101562 25.050781 C 23.609375 24.421875 23.339844 24.210938 22.648438 24.71875 Z M 22.648438 24.71875 "/>
<path style=" stroke:none;fill-rule:nonzero;fill:rgb(0%,0%,0%);fill-opacity:1;" d="M 35.101562 28.46875 C 35.101562 28.621094 35.308594 28.921875 35.609375 29.128906 C 36.570312 29.941406 37.199219 31.859375 37.171875 34.050781 C 37.171875 36.121094 36.660156 38.339844 36.628906 36.570312 C 36.601562 35.699219 34.351562 32.101562 33.839844 32.101562 C 33.660156 32.101562 33.601562 31.890625 33.691406 31.648438 C 33.808594 31.410156 33.75 31.140625 33.628906 31.050781 C 33.03125 30.691406 33 31.921875 33.601562 32.460938 C 34.050781 32.878906 34.199219 33.390625 34.199219 34.5 C 34.199219 35.308594 34.441406 36.628906 34.769531 37.410156 C 35.070312 38.191406 35.671875 40.410156 36.121094 42.300781 C 37.199219 47.011719 37.46875 48 37.769531 48 C 37.921875 48 38.191406 46.738281 38.371094 45.210938 C 38.578125 43.710938 39 41.28125 39.300781 39.839844 C 39.628906 38.398438 39.988281 36.089844 40.078125 34.710938 L 40.289062 32.191406 L 39.121094 30.929688 C 38.039062 29.699219 35.101562 27.898438 35.101562 28.46875 Z M 38.550781 31.5 C 38.460938 31.648438 38.550781 31.800781 38.761719 31.859375 C 39.179688 32.011719 39.121094 36.480469 38.671875 38.699219 C 38.519531 39.449219 38.25 40.890625 38.039062 41.941406 C 37.859375 42.960938 37.558594 43.769531 37.410156 43.710938 C 37.230469 43.648438 36.871094 42.601562 36.601562 41.371094 C 36.359375 40.140625 36.03125 39 35.941406 38.820312 C 35.820312 38.640625 35.671875 38.191406 35.578125 37.769531 C 35.519531 37.378906 35.371094 36.691406 35.25 36.210938 C 35.128906 35.761719 35.101562 35.398438 35.21875 35.398438 C 35.460938 35.398438 36.300781 37.109375 36.121094 37.261719 C 36.03125 37.351562 36.179688 37.5 36.449219 37.589844 C 37.378906 37.949219 37.949219 36.390625 37.921875 33.570312 C 37.921875 31.53125 38.011719 30.988281 38.308594 31.109375 C 38.519531 31.199219 38.640625 31.378906 38.550781 31.5 Z M 38.550781 31.5 "/>
<path style=" stroke:none;fill-rule:nonzero;fill:rgb(0%,0%,0%);fill-opacity:1;" d="M 66.421875 28.46875 C 66.691406 28.890625 64.769531 29.101562 63.511719 28.828125 C 62.671875 28.621094 62.398438 28.648438 62.488281 28.890625 C 62.550781 29.101562 62.730469 29.25 62.878906 29.28125 C 64.710938 29.429688 66.269531 30.691406 67.199219 32.761719 C 67.738281 33.960938 67.738281 34.078125 67.261719 34.648438 C 66.78125 35.21875 66.78125 35.21875 67.289062 34.828125 C 67.589844 34.589844 67.800781 34.558594 67.800781 34.738281 C 67.800781 35.371094 67.171875 35.460938 66.570312 34.921875 C 66.238281 34.621094 65.671875 34.351562 65.308594 34.289062 C 64.980469 34.230469 64.589844 34.078125 64.5 33.960938 C 64.410156 33.839844 64.140625 33.75 63.898438 33.75 C 63.660156 33.78125 63.300781 33.691406 63.148438 33.570312 C 62.96875 33.449219 61.859375 33.269531 60.691406 33.179688 C 58.378906 33.03125 57.628906 33.359375 58.320312 34.199219 C 58.679688 34.648438 61.800781 36.421875 61.800781 36.179688 C 61.800781 36.121094 60.960938 35.488281 59.941406 34.800781 L 58.050781 33.539062 L 59.550781 33.75 C 63.058594 34.230469 65.28125 34.890625 66.539062 35.761719 C 67.679688 36.570312 67.921875 36.628906 68.28125 36.238281 C 68.671875 35.878906 68.640625 35.578125 68.128906 33.929688 C 67.800781 32.878906 67.140625 31.53125 66.628906 30.898438 L 65.730469 29.761719 L 66.75 29.578125 C 67.921875 29.339844 68.101562 28.980469 67.230469 28.5 C 66.511719 28.140625 66.210938 28.109375 66.421875 28.46875 Z M 66.421875 28.46875 "/>
<path style=" stroke:none;fill-rule:nonzero;fill:rgb(0%,0%,0%);fill-opacity:1;" d="M 65.398438 32.039062 C 65.398438 32.160156 65.578125 32.519531 65.789062 32.820312 C 66.089844 33.238281 66.210938 33.269531 66.210938 32.941406 C 66.210938 32.730469 66.03125 32.371094 65.789062 32.160156 C 65.578125 31.949219 65.398438 31.890625 65.398438 32.039062 Z M 65.398438 32.039062 "/>
<path style=" stroke:none;fill-rule:nonzero;fill:rgb(0%,0%,0%);fill-opacity:1;" d="M 58.199219 36 C 58.199219 36.210938 58.921875 36.601562 59.28125 36.601562 C 59.671875 36.601562 59.308594 36.03125 58.800781 35.910156 C 58.46875 35.820312 58.199219 35.851562 58.199219 36 Z M 58.199219 36 "/>
<path style=" stroke:none;fill-rule:nonzero;fill:rgb(0%,0%,0%);fill-opacity:1;" d="M 46.589844 39.421875 C 43.441406 40.441406 41.339844 42.421875 40.800781 44.851562 C 40.558594 45.988281 40.710938 47.101562 41.128906 47.101562 C 41.25 47.101562 42.121094 46.558594 43.078125 45.898438 C 45.421875 44.25 47.308594 43.679688 49.800781 43.859375 C 53.761719 44.160156 55.828125 45.839844 56.039062 48.960938 C 56.128906 50.191406 56.308594 50.699219 56.578125 50.699219 C 56.910156 50.699219 57 50.160156 57 48.359375 C 57 42.628906 54.449219 39.359375 49.859375 39.121094 C 48.660156 39.058594 47.339844 39.179688 46.589844 39.421875 Z M 52.199219 40.46875 C 52.199219 40.621094 52.558594 40.890625 53.039062 41.101562 C 54.148438 41.578125 55.378906 43.140625 55.648438 44.371094 L 55.859375 45.359375 L 54.871094 44.671875 C 54.300781 44.28125 53.789062 43.859375 53.699219 43.769531 C 53.488281 43.5 52.050781 43.199219 50.28125 43.019531 C 49.441406 42.929688 48.601562 42.808594 48.390625 42.75 C 48.179688 42.691406 47.941406 42.75 47.878906 42.871094 C 47.789062 43.019531 47.398438 43.109375 47.011719 43.109375 C 46.621094 43.109375 45.898438 43.351562 45.421875 43.589844 C 44.941406 43.859375 44.191406 44.21875 43.738281 44.429688 C 43.261719 44.609375 42.898438 44.851562 42.898438 44.96875 C 42.898438 45.089844 42.570312 45.359375 42.179688 45.539062 C 41.519531 45.839844 41.460938 45.808594 41.550781 45.300781 C 41.761719 44.160156 42.691406 42.570312 43.320312 42.238281 C 43.648438 42.058594 44.160156 41.699219 44.398438 41.429688 C 44.640625 41.160156 45.179688 40.890625 45.601562 40.859375 C 46.019531 40.800781 46.46875 40.621094 46.648438 40.46875 C 47.011719 40.109375 52.199219 40.109375 52.199219 40.46875 Z M 52.199219 40.46875 "/>
<path style=" stroke:none;fill-rule:nonzero;fill:rgb(0%,0%,0%);fill-opacity:1;" d="M 35.039062 45.390625 C 33.179688 46.949219 32.699219 50.011719 34.019531 51.929688 C 34.441406 52.53125 34.859375 53.339844 34.949219 53.761719 C 35.039062 54.148438 35.339844 54.480469 35.640625 54.480469 C 36.121094 54.480469 36.121094 54.390625 35.578125 53.25 C 35.25 52.589844 34.828125 51.960938 34.679688 51.839844 C 34.46875 51.691406 34.46875 51.601562 34.648438 51.601562 C 34.828125 51.601562 34.738281 51.449219 34.5 51.300781 C 33.960938 50.96875 33.960938 48.148438 34.5 46.800781 C 34.980469 45.628906 35.339844 45.628906 35.160156 46.800781 C 35.070312 47.488281 35.191406 47.851562 35.730469 48.269531 C 36.121094 48.570312 36.78125 49.109375 37.171875 49.46875 C 37.558594 49.828125 38.101562 50.128906 38.371094 50.160156 C 38.640625 50.191406 39.058594 50.21875 39.300781 50.25 C 40.078125 50.308594 41.039062 50.96875 41.25 51.601562 C 41.339844 51.929688 41.761719 52.289062 42.179688 52.378906 C 43.140625 52.621094 43.078125 53.039062 42.089844 53.488281 C 41.640625 53.671875 41.011719 54.089844 40.710938 54.390625 C 40.410156 54.691406 39.960938 54.871094 39.75 54.78125 C 39.539062 54.71875 39.179688 54.839844 38.96875 55.078125 C 38.761719 55.320312 38.429688 55.46875 38.191406 55.378906 C 37.980469 55.289062 37.800781 55.351562 37.800781 55.53125 C 37.800781 55.710938 37.589844 55.769531 37.320312 55.679688 C 37.078125 55.589844 36.929688 55.621094 37.019531 55.769531 C 37.109375 55.921875 36.808594 56.101562 36.328125 56.160156 C 35.460938 56.28125 35.460938 56.28125 35.941406 55.558594 L 36.421875 54.808594 L 35.519531 55.261719 C 34.140625 55.980469 32.609375 56.160156 31.589844 55.738281 C 30.359375 55.230469 26.820312 55.46875 26.941406 56.070312 C 27 56.308594 26.851562 56.398438 26.609375 56.308594 C 26.28125 56.191406 26.191406 56.371094 26.21875 56.878906 C 26.25 57.480469 26.308594 57.539062 26.578125 57.148438 C 26.761719 56.910156 27.058594 56.699219 27.238281 56.699219 C 27.421875 56.699219 27.601562 56.578125 27.660156 56.398438 C 27.75 56.070312 29.789062 55.949219 30.75 56.21875 C 31.078125 56.308594 31.828125 56.519531 32.398438 56.671875 C 33.121094 56.851562 33.238281 56.941406 32.789062 56.96875 C 32.429688 57 32.070312 57.238281 31.980469 57.539062 C 31.859375 57.929688 31.441406 58.109375 30.628906 58.140625 C 29.101562 58.230469 28.351562 58.378906 27.660156 58.769531 C 27.328125 58.949219 27 58.980469 26.878906 58.890625 C 26.789062 58.800781 26.699219 58.859375 26.699219 59.039062 C 26.699219 59.25 26.519531 59.398438 26.28125 59.398438 C 26.039062 59.398438 25.679688 59.878906 25.46875 60.421875 C 25.261719 60.988281 24.960938 61.378906 24.808594 61.289062 C 24.628906 61.199219 24.601562 61.261719 24.71875 61.441406 C 24.839844 61.621094 24.78125 62.039062 24.628906 62.339844 C 24.359375 62.820312 24.511719 63.089844 25.441406 63.929688 C 26.308594 64.738281 26.429688 64.949219 26.011719 65.039062 C 25.738281 65.101562 25.558594 65.28125 25.679688 65.429688 C 25.890625 65.761719 25.171875 67.800781 24.839844 67.800781 C 24.71875 67.800781 24.601562 67.980469 24.601562 68.191406 C 24.601562 68.820312 23.878906 70.199219 23.550781 70.199219 C 23.128906 70.199219 22.441406 69.359375 21.988281 68.308594 C 21.78125 67.859375 21.601562 66.421875 21.601562 65.160156 C 21.601562 63.089844 21.71875 62.609375 22.648438 60.75 C 24 58.171875 25.679688 55.53125 26.519531 54.78125 C 27.148438 54.238281 27.148438 54.238281 26.398438 54.660156 C 25.441406 55.230469 23.398438 58.078125 22.050781 60.78125 C 21.089844 62.699219 21 63.121094 21 65.398438 C 21 67.679688 21.089844 68.039062 22.109375 69.929688 C 22.980469 71.550781 23.308594 71.910156 23.578125 71.640625 C 23.789062 71.429688 24.691406 69.839844 25.589844 68.128906 L 27.238281 65.011719 L 26.191406 64.019531 C 25.320312 63.179688 25.171875 62.878906 25.320312 62.21875 C 25.859375 60.148438 27.71875 58.890625 29.789062 59.21875 C 30.871094 59.398438 31.109375 59.308594 31.921875 58.53125 C 32.578125 57.898438 33.539062 57.449219 35.25 57.03125 C 37.921875 56.308594 41.910156 54.75 42.628906 54.121094 C 43.289062 53.519531 44.160156 53.609375 46.230469 54.449219 C 48.089844 55.199219 48.148438 55.171875 48.359375 53.878906 C 48.421875 53.398438 48.121094 53.191406 46.679688 52.769531 C 45.300781 52.351562 44.789062 52.320312 44.460938 52.558594 C 44.128906 52.859375 43.949219 52.769531 43.558594 52.289062 C 43.261719 51.960938 42.78125 51.570312 42.449219 51.480469 C 42.121094 51.390625 41.640625 50.910156 41.371094 50.429688 C 40.980469 49.738281 40.589844 49.53125 39.480469 49.378906 C 37.078125 49.019531 34.980469 46.378906 36.03125 45.121094 C 36.570312 44.460938 35.941406 44.640625 35.039062 45.390625 Z M 30.511719 58.679688 C 30.421875 58.769531 30.148438 58.800781 29.941406 58.710938 C 29.699219 58.621094 29.789062 58.53125 30.121094 58.53125 C 30.449219 58.5 30.628906 58.589844 30.511719 58.679688 Z M 30.511719 58.679688 "/>
<path style=" stroke:none;fill-rule:nonzero;fill:rgb(0%,0%,0%);fill-opacity:1;" d="M 41.550781 55.828125 C 40.558594 56.308594 39.929688 56.699219 40.140625 56.699219 C 40.351562 56.699219 40.949219 56.488281 41.460938 56.21875 C 42.871094 55.5 43.710938 55.410156 44.101562 56.011719 C 44.371094 56.460938 44.429688 56.460938 44.308594 56.070312 C 44.160156 55.648438 44.308594 55.621094 45.238281 55.828125 C 46.558594 56.128906 46.679688 56.191406 46.589844 56.460938 C 46.53125 56.609375 46.710938 56.699219 46.949219 56.699219 C 47.21875 56.699219 47.578125 57.058594 47.789062 57.511719 C 47.96875 57.988281 48.238281 58.441406 48.390625 58.53125 C 48.871094 58.859375 47.910156 59.96875 47.191406 59.941406 C 46.800781 59.878906 46.5 59.789062 46.5 59.699219 C 46.5 59.371094 39.121094 59.671875 38.101562 60.03125 C 37.53125 60.238281 37.019531 60.359375 36.988281 60.269531 C 36.929688 60.210938 36.691406 60.449219 36.449219 60.808594 C 36.179688 61.199219 35.671875 61.5 35.339844 61.5 C 34.980469 61.5 34.769531 61.589844 34.890625 61.679688 C 35.160156 61.949219 33.898438 63.03125 33.539062 62.820312 C 33.359375 62.699219 33.300781 62.730469 33.390625 62.910156 C 33.601562 63.269531 31.949219 65.160156 31.679688 64.859375 C 31.558594 64.769531 31.558594 64.921875 31.679688 65.21875 C 31.859375 65.671875 31.800781 65.730469 31.46875 65.550781 C 31.230469 65.429688 31.140625 65.429688 31.289062 65.550781 C 31.410156 65.699219 31.289062 66.058594 30.988281 66.359375 C 30.71875 66.660156 30.628906 66.898438 30.75 66.898438 C 30.871094 66.898438 30.78125 67.140625 30.539062 67.410156 C 30.300781 67.710938 29.851562 68.609375 29.578125 69.390625 C 29.160156 70.5 29.128906 70.921875 29.398438 71.25 C 30.089844 72.089844 29.96875 73.289062 29.101562 74.191406 C 28.648438 74.640625 28.019531 75.058594 27.660156 75.148438 C 27.300781 75.210938 26.789062 75.390625 26.519531 75.539062 C 25.5 76.109375 24.898438 75.628906 24.898438 74.28125 C 24.898438 73.589844 25.019531 72.898438 25.140625 72.71875 C 25.289062 72.570312 25.710938 71.640625 26.101562 70.648438 C 27.359375 67.441406 30.71875 61.078125 31.738281 59.96875 C 32.398438 59.21875 33.179688 58.738281 34.140625 58.5 C 34.921875 58.320312 35.878906 58.019531 36.300781 57.898438 C 36.71875 57.75 37.648438 57.480469 38.371094 57.300781 C 39.058594 57.121094 39.601562 56.878906 39.511719 56.820312 C 39.179688 56.488281 33.179688 58.351562 31.980469 59.160156 C 30.839844 59.910156 30.421875 60.570312 28.261719 64.890625 C 25.621094 70.230469 24 74.011719 24 74.941406 C 24 75.929688 25.230469 76.53125 26.578125 76.171875 C 28.320312 75.691406 30 74.640625 30.449219 73.800781 C 30.78125 73.171875 30.78125 72.871094 30.421875 72.03125 C 29.820312 70.558594 29.878906 69.929688 30.960938 67.800781 C 32.070312 65.578125 35.519531 61.921875 37.351562 61.019531 C 38.371094 60.539062 39.210938 60.449219 43.261719 60.449219 C 46.589844 60.449219 48.089844 60.328125 48.359375 60.058594 C 48.539062 59.878906 48.898438 59.699219 49.140625 59.699219 C 49.679688 59.699219 49.410156 58.441406 48.539062 57.03125 C 47.128906 54.75 44.640625 54.300781 41.550781 55.828125 Z M 41.550781 55.828125 "/>
<path style=" stroke:none;fill-rule:nonzero;fill:rgb(0%,0%,0%);fill-opacity:1;" d="M 42.960938 56.878906 C 42.601562 57.121094 42.300781 57.238281 42.300781 57.121094 C 42.300781 57.03125 42.121094 57.089844 41.910156 57.269531 C 41.671875 57.449219 41.25 57.628906 40.921875 57.691406 C 40.621094 57.71875 40.230469 57.839844 40.050781 57.929688 C 39.898438 58.050781 38.460938 58.441406 36.898438 58.800781 C 35.339844 59.191406 33.960938 59.640625 33.871094 59.789062 C 33.75 59.941406 33.449219 60 33.210938 59.910156 C 32.910156 59.789062 32.699219 59.96875 32.578125 60.449219 C 32.460938 60.871094 32.128906 61.320312 31.800781 61.5 C 31.46875 61.679688 31.199219 61.980469 31.199219 62.160156 C 31.199219 62.339844 31.589844 62.101562 32.039062 61.589844 C 32.820312 60.808594 35.398438 59.460938 35.398438 59.851562 C 35.398438 59.941406 35.640625 59.878906 35.941406 59.730469 C 36.210938 59.578125 36.871094 59.398438 37.351562 59.308594 C 38.96875 59.039062 43.199219 57.539062 43.199219 57.238281 C 43.199219 57.089844 43.351562 57.058594 43.5 57.148438 C 43.679688 57.238281 43.800781 57.121094 43.800781 56.878906 C 43.800781 56.28125 43.800781 56.28125 42.960938 56.878906 Z M 42.960938 56.878906 "/>
<path style=" stroke:none;fill-rule:nonzero;fill:rgb(0%,0%,0%);fill-opacity:1;" d="M 25.46875 57.300781 C 25.46875 57.390625 25.410156 57.71875 25.351562 58.050781 C 25.289062 58.378906 25.078125 58.679688 24.929688 58.738281 C 24.75 58.800781 24.601562 59.039062 24.601562 59.25 C 24.601562 59.460938 24.449219 59.699219 24.269531 59.761719 C 24.058594 59.820312 23.96875 60.058594 24.058594 60.300781 C 24.121094 60.539062 24.449219 60.269531 24.898438 59.519531 C 25.289062 58.890625 25.710938 58.289062 25.828125 58.199219 C 25.980469 58.109375 25.949219 57.839844 25.800781 57.601562 C 25.621094 57.359375 25.5 57.210938 25.46875 57.300781 Z M 25.46875 57.300781 "/>
<path style=" stroke:none;fill-rule:nonzero;fill:rgb(0%,0%,0%);fill-opacity:1;" d="M 0.148438 60.960938 C 0.660156 62.578125 2.25 66.03125 3.511719 68.25 C 8.011719 76.078125 15.359375 83.101562 23.25 87.089844 C 27.03125 89.011719 30.539062 90.328125 30.148438 89.671875 C 29.851562 89.21875 27.089844 87.898438 26.878906 88.109375 C 26.789062 88.230469 26.699219 88.171875 26.699219 87.988281 C 26.699219 87.808594 26.25 87.601562 25.738281 87.480469 C 25.199219 87.359375 24.238281 86.941406 23.640625 86.550781 C 23.011719 86.128906 22.378906 85.800781 22.199219 85.800781 C 22.019531 85.800781 21.960938 85.648438 22.078125 85.441406 C 22.199219 85.261719 22.171875 85.199219 21.960938 85.320312 C 21.808594 85.410156 20.730469 84.898438 19.648438 84.148438 C 18.539062 83.398438 17.488281 82.800781 17.371094 82.800781 C 17.21875 82.800781 17.101562 82.679688 17.101562 82.53125 C 17.101562 82.378906 16.621094 81.960938 16.050781 81.601562 C 14.761719 80.789062 12.929688 78.988281 13.171875 78.71875 C 13.261719 78.628906 13.171875 78.601562 12.960938 78.660156 C 12.511719 78.78125 8.101562 74.160156 8.101562 73.558594 C 8.101562 73.351562 7.980469 73.230469 7.828125 73.351562 C 7.679688 73.441406 7.441406 73.199219 7.320312 72.839844 C 7.199219 72.449219 6.898438 71.96875 6.628906 71.761719 C 6.238281 71.429688 6.238281 71.398438 6.601562 71.550781 C 6.988281 71.730469 6.988281 71.699219 6.601562 71.339844 C 5.820312 70.648438 4.199219 68.191406 4.410156 67.980469 C 4.5 67.890625 4.441406 67.800781 4.230469 67.800781 C 4.019531 67.800781 3.960938 67.648438 4.050781 67.5 C 4.140625 67.320312 4.109375 67.199219 3.960938 67.199219 C 3.660156 67.199219 1.949219 63.898438 2.039062 63.511719 C 2.070312 63.390625 1.769531 62.761719 1.351562 62.101562 C 0.929688 61.441406 0.601562 60.78125 0.601562 60.601562 C 0.601562 60.449219 0.449219 60.300781 0.269531 60.300781 C 0.0898438 60.300781 0.03125 60.570312 0.148438 60.960938 Z M 0.148438 60.960938 "/>
<path style=" stroke:none;fill-rule:nonzero;fill:rgb(0%,0%,0%);fill-opacity:1;" d="M 89.371094 60.988281 C 89.101562 61.351562 88.800781 61.949219 88.679688 62.308594 C 88.558594 62.699219 88.320312 63 88.171875 63 C 87.988281 63 87.929688 63.121094 88.019531 63.238281 C 88.109375 63.390625 87.960938 63.898438 87.71875 64.378906 C 87.449219 64.859375 87.269531 65.28125 87.269531 65.308594 C 87.390625 65.730469 87.238281 66 87 65.851562 C 86.820312 65.730469 86.699219 65.761719 86.730469 65.910156 C 86.820312 66.449219 86.671875 66.808594 86.101562 67.441406 C 85.738281 67.800781 85.558594 68.101562 85.648438 68.101562 C 85.769531 68.101562 85.558594 68.488281 85.230469 68.96875 C 84.871094 69.449219 84.601562 69.988281 84.601562 70.171875 C 84.601562 70.320312 84.421875 70.589844 84.179688 70.710938 C 83.941406 70.828125 83.699219 71.128906 83.640625 71.371094 C 83.550781 71.761719 82.589844 73.019531 81.539062 74.128906 C 81.238281 74.460938 81.058594 74.699219 81.121094 74.699219 C 81.179688 74.699219 80.070312 75.929688 78.628906 77.398438 C 77.160156 78.871094 75.839844 80.101562 75.660156 80.101562 C 75.480469 80.101562 75.269531 80.371094 75.148438 80.671875 C 75.058594 81 74.730469 81.359375 74.429688 81.449219 C 74.160156 81.539062 73.648438 81.839844 73.320312 82.140625 C 72.390625 82.980469 68.339844 85.5 67.890625 85.5 C 67.648438 85.5 67.53125 85.621094 67.621094 85.738281 C 67.710938 85.859375 66.871094 86.371094 65.761719 86.851562 C 64.648438 87.328125 62.820312 88.171875 61.648438 88.738281 C 59.820312 89.609375 59.699219 89.730469 60.660156 89.578125 C 62.191406 89.398438 66.121094 87.628906 69.238281 85.769531 C 78.121094 80.460938 85.410156 72.089844 89.039062 63.089844 C 90.089844 60.449219 90.179688 59.910156 89.371094 60.988281 Z M 89.371094 60.988281 "/>
<path style=" stroke:none;fill-rule:nonzero;fill:rgb(0%,0%,0%);fill-opacity:1;" d="M 30.390625 63.75 C 30.390625 63.988281 30.511719 64.109375 30.660156 64.019531 C 30.78125 63.929688 30.898438 63.75 30.898438 63.570312 C 30.898438 63.421875 30.78125 63.300781 30.660156 63.300781 C 30.511719 63.300781 30.390625 63.511719 30.390625 63.75 Z M 30.390625 63.75 "/>
<path style=" stroke:none;fill-rule:nonzero;fill:rgb(0%,0%,0%);fill-opacity:1;" d="M 29.671875 65.308594 C 29.28125 65.789062 29.308594 65.820312 29.789062 65.429688 C 30.058594 65.21875 30.300781 64.980469 30.300781 64.921875 C 30.300781 64.679688 30.058594 64.828125 29.671875 65.308594 Z M 29.671875 65.308594 "/>
<path style=" stroke:none;fill-rule:nonzero;fill:rgb(0%,0%,0%);fill-opacity:1;" d="M 16.289062 76.171875 L 15.058594 78.238281 L 16.410156 78.839844 C 18.421875 79.710938 19.828125 79.050781 18.929688 77.671875 C 18.660156 77.191406 18.691406 77.101562 19.140625 77.101562 C 19.949219 77.101562 20.429688 76.5 20.101562 75.898438 C 19.890625 75.480469 17.941406 74.101562 17.609375 74.101562 C 17.578125 74.101562 16.980469 75.03125 16.289062 76.171875 Z M 18.871094 75.691406 C 19.261719 76.171875 19.019531 76.5 18.238281 76.5 C 17.699219 76.5 17.488281 75.898438 17.910156 75.511719 C 18.210938 75.210938 18.480469 75.269531 18.871094 75.691406 Z M 18 78.148438 C 17.820312 78.359375 17.398438 78.480469 17.101562 78.390625 C 16.410156 78.210938 16.378906 78.148438 16.828125 77.371094 C 17.128906 76.769531 17.191406 76.769531 17.730469 77.28125 C 18.148438 77.640625 18.210938 77.910156 18 78.148438 Z M 18 78.148438 "/>
<path style=" stroke:none;fill-rule:nonzero;fill:rgb(0%,0%,0%);fill-opacity:1;" d="M 72.058594 74.609375 C 70.980469 75.121094 70.53125 76.261719 71.101562 76.949219 C 71.339844 77.21875 72 77.398438 72.78125 77.398438 C 73.5 77.398438 74.101562 77.519531 74.101562 77.640625 C 74.101562 78.121094 73.351562 78.601562 72.628906 78.601562 C 71.910156 78.601562 71.910156 78.628906 72.390625 79.109375 C 72.871094 79.621094 72.960938 79.589844 73.949219 79.078125 C 75.300781 78.328125 75.601562 77.460938 74.699219 76.738281 C 74.21875 76.351562 73.738281 76.230469 73.050781 76.378906 C 71.730469 76.621094 71.460938 76.050781 72.570312 75.359375 C 73.800781 74.609375 73.378906 73.980469 72.058594 74.609375 Z M 72.058594 74.609375 "/>
<path style=" stroke:none;fill-rule:nonzero;fill:rgb(0%,0%,0%);fill-opacity:1;" d="M 67.050781 76.980469 C 66.570312 77.25 66.121094 77.519531 66.058594 77.550781 C 66 77.609375 66.421875 78.539062 66.960938 79.621094 C 67.621094 80.96875 68.101562 81.570312 68.398438 81.511719 C 68.640625 81.449219 68.789062 81.210938 68.730469 80.96875 C 68.671875 80.730469 68.550781 80.308594 68.488281 80.011719 C 68.28125 79.351562 68.941406 79.351562 69.871094 80.070312 C 70.53125 80.578125 71.699219 80.609375 71.699219 80.101562 C 71.699219 79.980469 71.160156 79.648438 70.53125 79.351562 C 69.480469 78.898438 69.390625 78.75 69.691406 78.269531 C 70.53125 76.949219 68.730469 76.078125 67.050781 76.980469 Z M 68.789062 77.820312 C 68.878906 78.058594 68.761719 78.421875 68.488281 78.628906 C 68.101562 78.960938 67.980469 78.929688 67.621094 78.449219 C 67.289062 78 67.289062 77.851562 67.589844 77.640625 C 68.160156 77.28125 68.609375 77.339844 68.789062 77.820312 Z M 68.789062 77.820312 "/>
<path style=" stroke:none;fill-rule:nonzero;fill:rgb(0%,0%,0%);fill-opacity:1;" d="M 21.121094 78.601562 C 19.53125 80.128906 19.351562 80.398438 19.859375 80.578125 C 20.160156 80.671875 20.609375 80.609375 20.851562 80.398438 C 21.511719 79.859375 22.800781 80.339844 22.800781 81.148438 C 22.800781 81.71875 23.609375 82.441406 23.851562 82.140625 C 24.089844 81.839844 24.238281 77.101562 24.03125 77.101562 C 23.878906 77.101562 23.578125 77.039062 23.339844 76.949219 C 23.128906 76.859375 22.109375 77.609375 21.121094 78.601562 Z M 23.160156 78.75 C 23.039062 79.859375 22.921875 79.949219 22.199219 79.5 C 21.839844 79.289062 21.871094 79.109375 22.5 78.480469 C 22.890625 78.03125 23.21875 77.699219 23.25 77.699219 C 23.25 77.699219 23.21875 78.179688 23.160156 78.75 Z M 23.160156 78.75 "/>
<path style=" stroke:none;fill-rule:nonzero;fill:rgb(0%,0%,0%);fill-opacity:1;" d="M 26.398438 78.328125 C 26.398438 78.480469 26.398438 78.691406 26.371094 78.808594 C 26.371094 78.929688 26.878906 79.171875 27.480469 79.351562 L 28.589844 79.648438 L 26.730469 80.820312 C 25.710938 81.449219 24.929688 82.109375 24.988281 82.289062 C 25.078125 82.589844 27.628906 83.640625 28.441406 83.671875 C 29.339844 83.730469 28.679688 82.859375 27.570312 82.53125 L 26.371094 82.171875 L 28.140625 81 C 29.128906 80.371094 30 79.738281 30.089844 79.589844 C 30.179688 79.441406 29.398438 79.019531 28.320312 78.691406 C 27.269531 78.328125 26.398438 78.179688 26.398438 78.328125 Z M 26.398438 78.328125 "/>
<path style=" stroke:none;fill-rule:nonzero;fill:rgb(0%,0%,0%);fill-opacity:1;" d="M 61.738281 79.199219 C 60.988281 79.980469 60.871094 80.28125 61.019531 81.058594 C 61.230469 82.199219 61.710938 82.769531 62.640625 83.128906 C 63.511719 83.460938 65.21875 82.800781 65.699219 81.898438 C 66.449219 80.488281 65.070312 78.300781 63.390625 78.300781 C 62.96875 78.300781 62.25 78.691406 61.738281 79.199219 Z M 64.199219 79.800781 C 65.25 80.851562 64.800781 82.199219 63.390625 82.199219 C 62.21875 82.199219 61.589844 80.128906 62.640625 79.53125 C 63.359375 79.078125 63.511719 79.109375 64.199219 79.800781 Z M 64.199219 79.800781 "/>
<path style=" stroke:none;fill-rule:nonzero;fill:rgb(0%,0%,0%);fill-opacity:1;" d="M 30.628906 81.210938 C 30.421875 82.171875 30.179688 83.25 30.089844 83.609375 C 29.96875 84.148438 30.058594 84.300781 30.539062 84.300781 C 30.960938 84.300781 31.171875 84.03125 31.320312 83.371094 C 31.53125 82.289062 31.949219 82.441406 32.550781 83.878906 C 33.03125 85.050781 34.078125 85.351562 33.71875 84.210938 C 33.628906 83.851562 33.421875 83.371094 33.300781 83.128906 C 33.179688 82.890625 33.359375 82.46875 33.808594 82.019531 C 34.710938 81.121094 34.351562 80.25 32.941406 79.949219 C 32.398438 79.828125 31.738281 79.710938 31.5 79.621094 C 31.140625 79.53125 30.929688 79.921875 30.628906 81.210938 Z M 33.121094 81.449219 C 32.851562 82.109375 31.800781 82.019531 31.800781 81.359375 C 31.800781 80.578125 32.101562 80.371094 32.730469 80.730469 C 33.03125 80.878906 33.210938 81.210938 33.121094 81.449219 Z M 33.121094 81.449219 "/>
<path style=" stroke:none;fill-rule:nonzero;fill:rgb(0%,0%,0%);fill-opacity:1;" d="M 58.648438 79.710938 C 56.398438 80.21875 55.769531 80.460938 55.890625 80.789062 C 55.949219 81 56.339844 81.121094 56.761719 81.058594 C 57.449219 80.96875 57.539062 81.089844 57.898438 82.769531 C 58.140625 83.878906 58.441406 84.601562 58.679688 84.601562 C 59.339844 84.601562 59.398438 84.179688 58.949219 82.46875 C 58.378906 80.371094 58.378906 80.398438 59.25 80.398438 C 59.789062 80.398438 59.941406 80.28125 59.820312 79.949219 C 59.699219 79.710938 59.550781 79.53125 59.429688 79.53125 C 59.339844 79.558594 58.980469 79.621094 58.648438 79.710938 Z M 58.648438 79.710938 "/>
<path style=" stroke:none;fill-rule:nonzero;fill:rgb(0%,0%,0%);fill-opacity:1;" d="M 36.03125 82.769531 C 35.339844 83.910156 34.800781 84.929688 34.800781 85.019531 C 34.800781 85.410156 36.03125 85.171875 36.179688 84.75 C 36.449219 84.058594 38.128906 84.148438 38.308594 84.871094 C 38.460938 85.410156 39.238281 85.949219 39.511719 85.710938 C 39.570312 85.648438 39.359375 84.539062 39.058594 83.21875 C 38.609375 81.238281 38.429688 80.820312 37.890625 80.761719 C 37.378906 80.671875 37.019531 81.089844 36.03125 82.769531 Z M 37.890625 82.710938 C 38.070312 83.550781 38.011719 83.699219 37.5 83.699219 C 36.808594 83.699219 36.75 83.429688 37.261719 82.351562 C 37.648438 81.449219 37.648438 81.449219 37.890625 82.710938 Z M 37.890625 82.710938 "/>
<path style=" stroke:none;fill-rule:nonzero;fill:rgb(0%,0%,0%);fill-opacity:1;" d="M 51.480469 81.328125 C 50.429688 82.171875 50.398438 83.730469 51.449219 84.75 C 52.921875 86.25 55.5 85.261719 55.5 83.21875 C 55.5 81.089844 53.191406 79.980469 51.480469 81.328125 Z M 53.96875 82.019531 C 54.898438 83.128906 53.699219 85.109375 52.589844 84.421875 C 51.480469 83.730469 51.871094 81.601562 53.101562 81.601562 C 53.398438 81.601562 53.789062 81.78125 53.96875 82.019531 Z M 53.96875 82.019531 "/>
<path style=" stroke:none;fill-rule:nonzero;fill:rgb(0%,0%,0%);fill-opacity:1;" d="M 48.300781 81.300781 C 47.730469 81.421875 47.460938 81.808594 47.070312 83.101562 C 46.769531 84.121094 46.5 84.570312 46.378906 84.300781 C 46.289062 84.058594 46.019531 83.308594 45.808594 82.648438 C 45.449219 81.601562 45.269531 81.449219 44.398438 81.359375 C 43.441406 81.269531 43.410156 81.269531 43.621094 82.230469 C 43.710938 82.738281 43.800781 83.820312 43.800781 84.601562 C 43.800781 85.679688 43.921875 86.011719 44.28125 86.011719 C 44.699219 86.011719 44.761719 85.710938 44.609375 84.058594 C 44.429688 81.898438 44.671875 81.929688 45.480469 84.210938 C 46.261719 86.460938 46.890625 86.371094 47.671875 83.910156 L 48.269531 82.050781 L 48.269531 83.910156 C 48.300781 85.621094 48.359375 85.800781 48.929688 85.800781 C 49.53125 85.800781 49.53125 85.679688 49.410156 83.550781 C 49.351562 82.289062 49.230469 81.238281 49.171875 81.179688 C 49.109375 81.148438 48.71875 81.179688 48.300781 81.300781 Z M 48.300781 81.300781 "/>
</g>
</svg>
