<?xml version="1.0" encoding="UTF-8"?>
<svg xmlns="http://www.w3.org/2000/svg" xmlns:xlink="http://www.w3.org/1999/xlink" width="40px" height="40px" viewBox="0 0 40 40" version="1.1">
<g id="surface1">
<path style=" stroke:none;fill-rule:nonzero;fill:rgb(0%,0%,0%);fill-opacity:1;" d="M 12.105469 0.132812 C 11.90625 0.1875 11.199219 0.519531 10.535156 0.851562 C 7.199219 2.507812 4.398438 5 2.265625 8.1875 C 1.585938 9.199219 0.238281 11.894531 0.09375 12.507812 C -0.0390625 13.09375 0.308594 12.625 0.828125 11.519531 C 1.105469 10.90625 1.398438 10.375 1.464844 10.332031 C 1.546875 10.292969 1.601562 10.148438 1.601562 10.011719 C 1.601562 9.878906 1.691406 9.691406 1.800781 9.601562 C 1.90625 9.507812 1.972656 9.398438 1.945312 9.347656 C 1.90625 9.292969 2.199219 8.839844 2.574219 8.332031 C 2.960938 7.839844 3.386719 7.226562 3.535156 7 C 4.011719 6.253906 5.691406 4.453125 5.878906 4.507812 C 5.945312 4.519531 6 4.480469 6 4.414062 C 6 4.199219 7.613281 2.933594 7.761719 3.027344 C 7.851562 3.078125 7.867188 3.039062 7.8125 2.945312 C 7.746094 2.839844 7.8125 2.761719 7.988281 2.707031 C 8.148438 2.667969 8.265625 2.574219 8.265625 2.507812 C 8.265625 2.441406 8.332031 2.425781 8.398438 2.464844 C 8.480469 2.507812 8.535156 2.492188 8.535156 2.425781 C 8.535156 2.359375 8.773438 2.199219 9.054688 2.066406 C 9.347656 1.933594 9.613281 1.746094 9.652344 1.652344 C 9.691406 1.546875 9.851562 1.464844 10 1.464844 C 10.148438 1.464844 10.265625 1.414062 10.265625 1.347656 C 10.265625 1.238281 10.761719 1.027344 10.972656 1.054688 C 11.027344 1.066406 11.066406 1 11.066406 0.933594 C 11.066406 0.851562 11.105469 0.8125 11.171875 0.828125 C 11.226562 0.839844 11.398438 0.785156 11.546875 0.691406 C 11.707031 0.613281 11.851562 0.574219 11.894531 0.601562 C 11.933594 0.640625 12.09375 0.519531 12.265625 0.332031 C 12.441406 0.148438 12.558594 0 12.519531 0.0117188 C 12.492188 0.0117188 12.308594 0.0664062 12.105469 0.132812 Z M 12.105469 0.132812 "/>
<path style=" stroke:none;fill-rule:nonzero;fill:rgb(0%,0%,0%);fill-opacity:1;" d="M 27.546875 0.1875 C 27.613281 0.347656 27.933594 0.558594 28.039062 0.507812 C 28.054688 0.492188 28.214844 0.574219 28.398438 0.667969 C 28.585938 0.773438 28.800781 0.867188 28.894531 0.878906 C 28.988281 0.894531 29.226562 1.027344 29.425781 1.160156 C 29.625 1.308594 30.199219 1.613281 30.691406 1.867188 C 31.1875 2.105469 31.558594 2.359375 31.519531 2.425781 C 31.480469 2.480469 31.507812 2.535156 31.585938 2.535156 C 31.746094 2.535156 32.601562 3.09375 33.09375 3.546875 C 33.292969 3.71875 33.507812 3.867188 33.558594 3.867188 C 33.625 3.867188 33.867188 4.105469 34.121094 4.398438 C 34.375 4.691406 34.625 4.894531 34.691406 4.851562 C 34.746094 4.8125 34.800781 4.839844 34.800781 4.90625 C 34.800781 4.972656 35.011719 5.238281 35.265625 5.507812 C 35.519531 5.773438 35.734375 6.011719 35.734375 6.039062 C 35.734375 6.078125 35.945312 6.332031 36.199219 6.613281 C 36.453125 6.894531 36.667969 7.214844 36.667969 7.320312 C 36.667969 7.425781 36.707031 7.464844 36.746094 7.425781 C 36.839844 7.347656 37.199219 7.746094 37.386719 8.132812 C 37.441406 8.238281 37.625 8.574219 37.800781 8.867188 C 38.226562 9.558594 39.28125 11.707031 39.398438 12.132812 C 39.453125 12.308594 39.585938 12.535156 39.679688 12.640625 C 39.785156 12.734375 39.828125 12.878906 39.785156 12.960938 C 39.734375 13.039062 39.761719 13.066406 39.839844 13.011719 C 40.027344 12.894531 39.921875 12.359375 39.492188 11.398438 C 37.414062 6.691406 33.761719 2.878906 29.265625 0.734375 C 27.761719 0.0117188 27.441406 -0.078125 27.546875 0.1875 Z M 27.546875 0.1875 "/>
<path style=" stroke:none;fill-rule:nonzero;fill:rgb(0%,0%,0%);fill-opacity:1;" d="M 19.8125 2.078125 C 19.691406 2.1875 19.601562 2.464844 19.601562 2.679688 C 19.601562 3.027344 19.652344 3.066406 20 3.066406 C 20.359375 3.066406 20.386719 3.09375 20.320312 3.464844 C 20.238281 3.8125 20.265625 3.867188 20.519531 3.867188 C 20.773438 3.867188 20.800781 3.800781 20.800781 3 C 20.800781 2.519531 20.851562 2.132812 20.933594 2.132812 C 21 2.132812 21.027344 2.308594 20.988281 2.535156 C 20.90625 2.90625 20.921875 2.933594 21.308594 2.933594 C 21.535156 2.933594 21.800781 2.972656 21.921875 3.011719 C 22.28125 3.148438 22.199219 2.332031 21.839844 2.078125 C 21.441406 1.785156 20.09375 1.785156 19.8125 2.078125 Z M 20.398438 2.464844 C 20.398438 2.679688 20.320312 2.800781 20.199219 2.800781 C 20 2.800781 19.921875 2.386719 20.09375 2.226562 C 20.265625 2.039062 20.398438 2.148438 20.398438 2.464844 Z M 21.734375 2.546875 C 21.734375 2.707031 21.667969 2.800781 21.585938 2.773438 C 21.507812 2.746094 21.453125 2.679688 21.453125 2.625 C 21.464844 2.574219 21.464844 2.441406 21.464844 2.320312 C 21.464844 2.214844 21.535156 2.160156 21.601562 2.199219 C 21.679688 2.238281 21.734375 2.398438 21.734375 2.546875 Z M 21.734375 2.546875 "/>
<path style=" stroke:none;fill-rule:nonzero;fill:rgb(0%,0%,0%);fill-opacity:1;" d="M 16.667969 2.347656 C 16.585938 2.535156 16.386719 2.878906 16.199219 3.121094 C 15.613281 3.878906 15.8125 4.347656 16.652344 4.199219 C 17.121094 4.121094 17.199219 4.066406 17.199219 3.785156 C 17.199219 3.464844 17.386719 3.359375 17.535156 3.601562 C 17.585938 3.679688 17.679688 3.707031 17.746094 3.667969 C 17.90625 3.558594 17.90625 3.066406 17.746094 3.066406 C 17.386719 3.066406 16.921875 3.375 16.800781 3.667969 C 16.667969 4.011719 16.480469 4.09375 16.320312 3.851562 C 16.28125 3.773438 16.425781 3.453125 16.652344 3.132812 C 17.054688 2.558594 17.199219 2 16.933594 2 C 16.851562 2 16.734375 2.160156 16.667969 2.347656 Z M 16.667969 2.347656 "/>
<path style=" stroke:none;fill-rule:nonzero;fill:rgb(0%,0%,0%);fill-opacity:1;" d="M 23.640625 2.398438 C 23.574219 2.734375 23.519531 2.785156 23.253906 2.71875 C 23.027344 2.667969 22.90625 2.707031 22.851562 2.867188 C 22.734375 3.1875 23.066406 3.375 23.265625 3.105469 C 23.492188 2.800781 23.601562 3.066406 23.464844 3.640625 C 23.375 4.066406 23.398438 4.132812 23.601562 4.132812 C 23.773438 4.132812 23.851562 3.988281 23.921875 3.601562 C 24 3.09375 24.265625 2.839844 24.265625 3.28125 C 24.265625 3.546875 24.585938 3.453125 24.640625 3.171875 C 24.667969 3.039062 24.546875 2.933594 24.332031 2.878906 C 24.054688 2.8125 24.011719 2.734375 24.078125 2.480469 C 24.132812 2.265625 24.09375 2.148438 23.933594 2.09375 C 23.785156 2.027344 23.707031 2.105469 23.640625 2.398438 Z M 23.640625 2.398438 "/>
<path style=" stroke:none;fill-rule:nonzero;fill:rgb(0%,0%,0%);fill-opacity:1;" d="M 14.519531 2.492188 C 14.507812 2.546875 14.492188 2.746094 14.480469 2.921875 C 14.464844 3.308594 14.171875 3.453125 14.105469 3.09375 C 14.066406 2.878906 14 2.867188 13.640625 2.960938 C 13.332031 3.039062 13.199219 3.148438 13.199219 3.332031 C 13.199219 3.667969 13.558594 3.691406 13.640625 3.359375 C 13.707031 3.09375 13.734375 3.171875 13.988281 4.09375 C 14.09375 4.464844 14.226562 4.667969 14.347656 4.667969 C 14.558594 4.667969 14.546875 4.492188 14.320312 3.691406 C 14.265625 3.546875 14.320312 3.464844 14.453125 3.464844 C 14.574219 3.464844 14.707031 3.667969 14.800781 4 C 14.933594 4.507812 15.105469 4.667969 15.253906 4.425781 C 15.359375 4.253906 14.867188 2.492188 14.691406 2.425781 C 14.601562 2.398438 14.519531 2.425781 14.519531 2.492188 Z M 14.519531 2.492188 "/>
<path style=" stroke:none;fill-rule:nonzero;fill:rgb(0%,0%,0%);fill-opacity:1;" d="M 25.679688 2.921875 C 25.546875 3.066406 25.359375 3.441406 25.265625 3.773438 C 25.066406 4.425781 25.132812 4.535156 25.746094 4.535156 C 25.894531 4.535156 26.039062 4.625 26.078125 4.734375 C 26.199219 5.027344 26.535156 4.972656 26.535156 4.667969 C 26.535156 4.480469 26.441406 4.398438 26.238281 4.398438 C 25.652344 4.398438 25.535156 4.214844 25.746094 3.652344 C 25.945312 3.105469 26.386719 2.746094 26.492188 3.027344 C 26.601562 3.308594 27.011719 3.226562 27.027344 2.933594 C 27.054688 2.707031 26.972656 2.667969 26.480469 2.667969 C 26.09375 2.667969 25.839844 2.746094 25.679688 2.921875 Z M 25.679688 2.921875 "/>
<path style=" stroke:none;fill-rule:nonzero;fill:rgb(0%,0%,0%);fill-opacity:1;" d="M 28.09375 3.054688 C 28.132812 3.214844 28.066406 3.359375 27.894531 3.453125 C 27.613281 3.601562 27.132812 4.71875 27.265625 4.933594 C 27.425781 5.1875 27.546875 5.066406 27.785156 4.398438 C 28.054688 3.667969 28.214844 3.492188 28.441406 3.71875 C 28.558594 3.839844 28.535156 4.039062 28.359375 4.519531 C 28.078125 5.308594 28.078125 5.332031 28.320312 5.332031 C 28.519531 5.332031 28.933594 4.441406 28.933594 4.011719 C 28.933594 3.878906 28.839844 3.691406 28.734375 3.601562 C 28.625 3.507812 28.535156 3.332031 28.535156 3.199219 C 28.535156 3.066406 28.441406 2.921875 28.320312 2.878906 C 28.027344 2.761719 28.011719 2.773438 28.09375 3.054688 Z M 28.09375 3.054688 "/>
<path style=" stroke:none;fill-rule:nonzero;fill:rgb(0%,0%,0%);fill-opacity:1;" d="M 11.519531 3.332031 C 11.359375 3.386719 11.214844 3.519531 11.171875 3.625 C 11.054688 3.921875 11.453125 5.066406 11.667969 5.066406 C 11.921875 5.066406 11.921875 4.972656 11.667969 4.253906 C 11.507812 3.8125 11.492188 3.667969 11.625 3.585938 C 11.878906 3.425781 12.09375 3.691406 12.347656 4.441406 C 12.613281 5.265625 12.585938 5.226562 12.828125 5.132812 C 13.011719 5.066406 13 4.960938 12.773438 4.359375 C 12.359375 3.28125 12.121094 3.078125 11.519531 3.332031 Z M 11.519531 3.332031 "/>
<path style=" stroke:none;fill-rule:nonzero;fill:rgb(0%,0%,0%);fill-opacity:1;" d="M 20.867188 7.800781 C 20.441406 8.28125 20.121094 8.507812 19.960938 8.480469 C 19.839844 8.453125 19.761719 8.480469 19.800781 8.535156 C 19.839844 8.601562 19.652344 8.71875 19.375 8.785156 C 17.375 9.320312 16.214844 9.375 14.960938 8.988281 C 14.347656 8.800781 13.828125 8.785156 12.839844 8.945312 C 12.761719 8.960938 12.625 9.121094 12.546875 9.292969 C 12.441406 9.535156 12.441406 9.601562 12.601562 9.601562 C 12.707031 9.601562 12.800781 9.507812 12.800781 9.398438 C 12.800781 9.253906 13 9.226562 13.839844 9.265625 C 14.398438 9.292969 15.226562 9.386719 15.667969 9.464844 C 16.546875 9.640625 18.226562 9.558594 18.453125 9.332031 C 18.519531 9.265625 18.71875 9.199219 18.867188 9.199219 C 19.027344 9.199219 19.347656 9.105469 19.574219 9 C 19.800781 8.878906 20.132812 8.8125 20.332031 8.851562 C 20.519531 8.894531 20.8125 8.867188 20.972656 8.785156 C 21.238281 8.667969 21.238281 8.667969 20.90625 8.707031 C 20.691406 8.746094 20.535156 8.746094 20.535156 8.734375 C 20.535156 8.71875 20.828125 8.386719 21.199219 7.988281 C 21.558594 7.585938 21.867188 7.226562 21.867188 7.160156 C 21.867188 6.894531 21.464844 7.160156 20.867188 7.800781 Z M 20.867188 7.800781 "/>
<path style=" stroke:none;fill-rule:nonzero;fill:rgb(0%,0%,0%);fill-opacity:1;" d="M 11.066406 8.253906 C 10.894531 8.585938 10.894531 9.199219 11.066406 9.199219 C 11.148438 9.199219 11.199219 9.292969 11.199219 9.398438 C 11.199219 9.507812 11.148438 9.601562 11.066406 9.601562 C 11 9.601562 10.933594 9.667969 10.933594 9.734375 C 10.933594 9.828125 11.011719 9.828125 11.171875 9.746094 C 11.347656 9.652344 11.480469 9.667969 11.585938 9.773438 C 11.71875 9.894531 11.734375 9.878906 11.667969 9.691406 C 11.613281 9.574219 11.507812 9.464844 11.414062 9.464844 C 11.320312 9.464844 11.332031 9.414062 11.453125 9.347656 C 11.585938 9.253906 11.574219 9.199219 11.347656 9.039062 C 11.09375 8.851562 11.054688 8.480469 11.265625 8.132812 C 11.308594 8.054688 11.320312 8 11.28125 8 C 11.238281 8 11.148438 8.121094 11.066406 8.253906 Z M 11.066406 8.253906 "/>
<path style=" stroke:none;fill-rule:nonzero;fill:rgb(0%,0%,0%);fill-opacity:1;" d="M 25.535156 8.398438 C 25.160156 8.453125 24.535156 8.585938 24.132812 8.707031 C 23.734375 8.828125 22.691406 9.011719 21.8125 9.148438 C 20.71875 9.308594 20.320312 9.414062 20.519531 9.480469 C 20.667969 9.546875 20.988281 9.558594 21.226562 9.535156 C 21.464844 9.507812 21.894531 9.441406 22.1875 9.414062 C 23.386719 9.253906 23.800781 9.171875 24.027344 9.054688 C 24.1875 8.972656 24.265625 8.972656 24.265625 9.066406 C 24.265625 9.132812 24.1875 9.199219 24.078125 9.199219 C 23.921875 9.199219 23.667969 9.585938 23.761719 9.667969 C 23.867188 9.773438 24.828125 10.265625 24.90625 10.265625 C 24.945312 10.265625 24.761719 10.105469 24.480469 9.921875 L 23.960938 9.558594 L 24.558594 9.253906 C 24.894531 9.078125 25.71875 8.851562 26.414062 8.734375 C 27.105469 8.613281 27.71875 8.453125 27.800781 8.386719 C 27.945312 8.238281 26.546875 8.253906 25.535156 8.398438 Z M 25.535156 8.398438 "/>
<path style=" stroke:none;fill-rule:nonzero;fill:rgb(0%,0%,0%);fill-opacity:1;" d="M 11.546875 8.734375 C 11.667969 8.921875 11.785156 9.066406 11.8125 9.066406 C 11.839844 9.066406 11.785156 8.921875 11.707031 8.734375 C 11.625 8.546875 11.507812 8.398438 11.441406 8.398438 C 11.375 8.398438 11.425781 8.546875 11.546875 8.734375 Z M 11.546875 8.734375 "/>
<path style=" stroke:none;fill-rule:nonzero;fill:rgb(0%,0%,0%);fill-opacity:1;" d="M 12.441406 8.558594 C 12.121094 8.988281 12.121094 9.105469 12.441406 8.8125 C 12.640625 8.625 12.800781 8.464844 12.800781 8.441406 C 12.800781 8.332031 12.546875 8.414062 12.441406 8.558594 Z M 12.441406 8.558594 "/>
<path style=" stroke:none;fill-rule:nonzero;fill:rgb(0%,0%,0%);fill-opacity:1;" d="M 10.132812 9.464844 C 10.132812 10.039062 10.078125 10.265625 9.960938 10.265625 C 9.679688 10.265625 9.214844 10.839844 9.121094 11.292969 C 9.066406 11.601562 9.121094 11.90625 9.332031 12.347656 C 9.601562 12.894531 9.625 13.054688 9.507812 13.691406 C 9.414062 14.238281 9.414062 14.441406 9.535156 14.480469 C 9.640625 14.535156 9.667969 14.972656 9.625 16.105469 C 9.546875 18.308594 9.546875 18.226562 9.574219 19.414062 C 9.601562 20.640625 9.546875 20.574219 10.800781 20.867188 C 11.519531 21.039062 11.546875 21.039062 12.066406 20.691406 C 12.761719 20.226562 12.773438 20.199219 12.761719 19.507812 C 12.761719 19 12.867188 18.761719 13.585938 17.71875 C 14.734375 16.066406 14.828125 15.800781 14.640625 14.867188 L 14.492188 14.121094 L 14.199219 15.28125 C 13.972656 16.199219 13.828125 16.507812 13.507812 16.785156 C 12.867188 17.347656 12.292969 18.386719 12.1875 19.199219 C 12.132812 19.601562 12 20.066406 11.878906 20.226562 C 11.652344 20.546875 11.066406 20.640625 11.066406 20.359375 C 11.066406 20.148438 10.574219 19.679688 10.238281 19.558594 C 10.054688 19.492188 10.027344 19.386719 10.09375 19.039062 C 10.238281 18.238281 10.375 18.011719 10.625 18.078125 C 10.761719 18.121094 11.039062 18.09375 11.238281 18.011719 C 11.574219 17.878906 11.601562 17.8125 11.601562 17.171875 C 11.601562 16.375 11.386719 15.464844 11.199219 15.464844 C 11.121094 15.464844 11.066406 15.398438 11.066406 15.320312 C 11.066406 15.253906 11.121094 15.214844 11.1875 15.253906 C 11.253906 15.292969 11.464844 15.199219 11.652344 15.054688 C 11.933594 14.839844 12 14.667969 11.972656 14.359375 C 11.921875 13.867188 11.519531 13.558594 11.332031 13.867188 C 11.253906 13.972656 11.214844 14.1875 11.226562 14.332031 C 11.265625 14.667969 11.09375 14.960938 10.921875 14.867188 C 10.601562 14.667969 10.945312 13.308594 11.359375 13.160156 C 11.453125 13.132812 11.761719 13.214844 12.027344 13.347656 C 12.519531 13.601562 13.679688 13.707031 13.546875 13.492188 C 13.507812 13.425781 13.652344 13.199219 13.867188 13 C 14.453125 12.441406 14.386719 12.1875 13.773438 12.574219 C 12.894531 13.121094 12.851562 13.121094 13.441406 12.558594 C 13.761719 12.265625 13.988281 11.960938 13.945312 11.894531 C 13.867188 11.761719 12.800781 12.707031 12.800781 12.921875 C 12.800781 12.988281 12.707031 13.078125 12.585938 13.121094 C 12.292969 13.226562 12.238281 13.226562 12.320312 13.078125 C 12.414062 12.945312 11.667969 12.71875 11.347656 12.785156 C 10.71875 12.90625 10.1875 14.253906 10.519531 14.90625 C 10.585938 15.027344 10.746094 15.375 10.894531 15.667969 C 11.054688 15.972656 11.171875 16.519531 11.1875 16.960938 L 11.214844 17.734375 L 10.839844 17.652344 C 10.535156 17.601562 10.375 17.652344 10.066406 17.960938 C 9.867188 18.160156 9.734375 18.265625 9.773438 18.171875 C 9.851562 18.054688 9.894531 15.773438 9.867188 14 C 9.851562 13.746094 9.851562 13.332031 9.867188 13.078125 C 9.867188 12.839844 9.773438 12.480469 9.667969 12.308594 C 9.414062 11.933594 9.292969 11.425781 9.464844 11.535156 C 9.535156 11.574219 9.613281 11.546875 9.667969 11.464844 C 9.707031 11.398438 9.679688 11.332031 9.601562 11.332031 C 9.308594 11.332031 9.519531 10.613281 9.867188 10.441406 C 10.054688 10.347656 10.292969 10.160156 10.414062 10.011719 C 10.535156 9.867188 10.667969 9.785156 10.71875 9.828125 C 10.761719 9.878906 10.800781 9.867188 10.800781 9.8125 C 10.800781 9.761719 10.707031 9.625 10.601562 9.519531 C 10.492188 9.398438 10.398438 9.226562 10.398438 9.105469 C 10.398438 8.933594 10.441406 8.933594 10.640625 9.078125 C 10.828125 9.226562 10.8125 9.214844 10.613281 8.960938 C 10.226562 8.507812 10.132812 8.601562 10.132812 9.464844 Z M 10.375 20.078125 C 10.761719 20.347656 10.761719 20.585938 10.375 20.375 C 10.199219 20.28125 10.027344 20.226562 9.972656 20.238281 C 9.90625 20.253906 9.867188 20.171875 9.867188 20.066406 C 9.867188 19.8125 10 19.8125 10.375 20.078125 Z M 10.375 20.078125 "/>
<path style=" stroke:none;fill-rule:nonzero;fill:rgb(0%,0%,0%);fill-opacity:1;" d="M 12.199219 9.878906 C 12.054688 9.933594 12.011719 9.988281 12.105469 9.988281 C 12.199219 10 12.238281 10.066406 12.199219 10.132812 C 12.148438 10.214844 12.066406 10.238281 12 10.199219 C 11.851562 10.105469 11.734375 10.613281 11.734375 11.332031 C 11.734375 11.921875 11.878906 12.332031 12.039062 12.238281 C 12.09375 12.226562 12.253906 12.308594 12.398438 12.441406 C 12.667969 12.652344 12.679688 12.652344 13.066406 12.238281 C 13.625 11.625 13.625 11.171875 13.066406 11.734375 C 12.679688 12.121094 12.160156 12.078125 12.054688 11.652344 C 11.933594 11.171875 12.226562 10.226562 12.464844 10.320312 C 13.292969 10.625 13.988281 10.71875 15.535156 10.691406 C 17.535156 10.667969 18.078125 10.800781 19.320312 11.601562 C 19.773438 11.894531 20.746094 12.71875 21.492188 13.425781 C 22.253906 14.148438 23.171875 14.972656 23.535156 15.265625 C 23.90625 15.558594 24.253906 15.894531 24.320312 16 C 24.558594 16.386719 25.386719 17.105469 25.746094 17.226562 C 26.011719 17.320312 26.09375 17.425781 26.078125 17.679688 C 26.078125 17.851562 25.988281 18 25.894531 18 C 25.785156 18 25.761719 18.105469 25.800781 18.292969 C 26.320312 20.613281 26.199219 23 25.519531 23.746094 C 25.214844 24.078125 24.558594 24.066406 24.1875 23.71875 C 23.839844 23.398438 23.601562 23.480469 23.601562 23.921875 C 23.601562 24.09375 23.480469 24.332031 23.320312 24.480469 C 23.039062 24.734375 22.265625 26.132812 22.265625 26.398438 C 22.265625 26.464844 22.347656 26.535156 22.453125 26.535156 C 22.558594 26.535156 22.773438 26.707031 22.933594 26.933594 C 23.652344 27.945312 26.226562 28.652344 29.160156 28.667969 L 31.054688 28.667969 L 31.066406 24.066406 C 31.066406 20.09375 31.039062 19.464844 30.867188 19.464844 C 30.746094 19.464844 30.707031 19.546875 30.761719 19.679688 C 30.878906 20 30.585938 20.105469 29.960938 19.960938 C 28.132812 19.535156 27.292969 19.28125 27.132812 19.121094 C 27.039062 19.011719 26.839844 18.933594 26.707031 18.933594 C 26.441406 18.933594 26.078125 18.320312 26.28125 18.1875 C 26.359375 18.148438 26.519531 18.1875 26.640625 18.28125 C 26.828125 18.425781 26.839844 18.425781 26.707031 18.265625 C 26.613281 18.160156 26.535156 17.945312 26.535156 17.785156 C 26.535156 17.519531 26.613281 17.492188 27.441406 17.441406 C 28.347656 17.386719 29.066406 17.132812 29.171875 16.839844 C 29.214844 16.707031 29.027344 16.691406 28.414062 16.761719 C 27.679688 16.828125 27.558594 16.8125 27.265625 16.535156 C 27.078125 16.359375 26.933594 16.265625 26.933594 16.320312 C 26.933594 16.386719 26.839844 16.347656 26.71875 16.253906 C 26.535156 16.09375 26.507812 16.105469 26.546875 16.332031 C 26.585938 16.480469 26.71875 16.613281 26.851562 16.640625 C 27 16.667969 27.199219 16.773438 27.308594 16.878906 C 27.414062 17 27.613281 17.039062 27.839844 16.988281 C 28.039062 16.933594 28.160156 16.933594 28.121094 16.988281 C 28.066406 17.039062 27.734375 17.105469 27.386719 17.148438 C 27.027344 17.1875 26.667969 17.238281 26.574219 17.265625 C 26.492188 17.292969 26.320312 17.199219 26.1875 17.054688 C 26.066406 16.921875 25.878906 16.800781 25.785156 16.800781 C 25.613281 16.800781 24.945312 16.171875 24.375 15.464844 C 24.160156 15.214844 24 15.066406 24 15.132812 C 24 15.199219 23.921875 15.132812 23.8125 14.988281 C 23.707031 14.851562 23.546875 14.734375 23.441406 14.734375 C 23.347656 14.71875 23.28125 14.652344 23.292969 14.558594 C 23.320312 14.464844 23.238281 14.398438 23.132812 14.398438 C 23.027344 14.398438 22.867188 14.28125 22.773438 14.132812 C 22.679688 13.988281 22.535156 13.867188 22.441406 13.867188 C 22.359375 13.867188 22.253906 13.746094 22.199219 13.601562 C 22.160156 13.453125 22.054688 13.347656 21.960938 13.375 C 21.878906 13.386719 21.746094 13.265625 21.667969 13.09375 C 21.601562 12.933594 21.464844 12.800781 21.375 12.800781 C 21.28125 12.800781 21.148438 12.679688 21.066406 12.535156 C 20.90625 12.238281 19.558594 11.199219 19.332031 11.199219 C 19.265625 11.199219 19.199219 11.148438 19.199219 11.078125 C 19.199219 10.960938 18.613281 10.707031 18.585938 10.8125 C 18.574219 10.839844 18.453125 10.773438 18.320312 10.652344 C 17.933594 10.320312 17.308594 10.226562 15.199219 10.199219 C 13.09375 10.160156 12.691406 10.121094 12.558594 9.90625 C 12.507812 9.828125 12.359375 9.8125 12.199219 9.878906 Z M 27.492188 19.613281 C 27.773438 19.761719 28.105469 19.867188 28.253906 19.867188 C 28.398438 19.867188 28.546875 19.921875 28.585938 19.988281 C 28.652344 20.078125 29.667969 20.253906 30.507812 20.320312 L 30.800781 20.332031 L 30.800781 23.546875 C 30.800781 25.851562 30.761719 26.785156 30.640625 26.90625 C 30.519531 27.027344 30.519531 27.066406 30.652344 27.066406 C 30.761719 27.066406 30.800781 27.238281 30.773438 27.625 C 30.734375 28.121094 30.691406 28.199219 30.332031 28.292969 C 30.121094 28.347656 29.214844 28.375 28.332031 28.332031 C 26.464844 28.265625 26.398438 28.253906 26.398438 28.121094 C 26.398438 28.066406 26.292969 28.054688 26.160156 28.09375 C 26.027344 28.121094 25.746094 28.078125 25.535156 27.988281 C 25.308594 27.894531 25.078125 27.8125 25 27.8125 C 24.707031 27.773438 24.265625 27.574219 24.265625 27.480469 C 24.265625 27.414062 24.09375 27.332031 23.878906 27.292969 C 23.640625 27.238281 23.398438 27.054688 23.253906 26.800781 C 23.121094 26.585938 22.960938 26.398438 22.90625 26.398438 C 22.574219 26.398438 23.238281 24.851562 23.625 24.734375 C 23.761719 24.679688 23.851562 24.613281 23.851562 24.558594 C 23.800781 24.214844 23.878906 24.132812 24.132812 24.265625 C 24.28125 24.347656 24.398438 24.375 24.398438 24.320312 C 24.398438 24.28125 24.480469 24.292969 24.574219 24.359375 C 24.652344 24.425781 24.800781 24.464844 24.867188 24.464844 C 25.1875 24.414062 25.851562 24.105469 25.828125 24.027344 C 25.8125 23.972656 25.90625 23.785156 26.027344 23.601562 C 26.398438 23.027344 26.574219 21.800781 26.464844 20.425781 L 26.375 19.171875 L 26.679688 19.265625 C 26.851562 19.320312 27.226562 19.480469 27.492188 19.613281 Z M 27.492188 19.613281 "/>
<path style=" stroke:none;fill-rule:nonzero;fill:rgb(0%,0%,0%);fill-opacity:1;" d="M 23.667969 10.535156 C 23.71875 10.613281 23.8125 10.640625 23.878906 10.601562 C 24.066406 10.480469 24.027344 10.398438 23.785156 10.398438 C 23.679688 10.398438 23.625 10.464844 23.667969 10.535156 Z M 23.667969 10.535156 "/>
<path style=" stroke:none;fill-rule:nonzero;fill:rgb(0%,0%,0%);fill-opacity:1;" d="M 24.199219 10.652344 C 24.160156 10.71875 24.253906 10.8125 24.398438 10.867188 C 24.546875 10.90625 24.667969 11 24.667969 11.066406 C 24.667969 11.121094 24.867188 11.199219 25.105469 11.253906 C 26.039062 11.425781 26.613281 11.507812 26.933594 11.535156 C 27.640625 11.585938 27.640625 11.585938 27.480469 11.785156 C 27.28125 12.027344 27.535156 12.214844 28.121094 12.253906 C 28.707031 12.28125 28.613281 12.171875 27.921875 12.027344 L 27.398438 11.921875 L 28.464844 11.679688 C 29.054688 11.546875 29.734375 11.359375 29.972656 11.253906 C 30.507812 11.039062 30.546875 10.761719 30.039062 10.878906 C 29.828125 10.921875 29.011719 11.027344 28.226562 11.105469 C 26.71875 11.253906 25.425781 11.121094 24.640625 10.71875 C 24.441406 10.613281 24.253906 10.585938 24.199219 10.652344 Z M 24.199219 10.652344 "/>
<path style=" stroke:none;fill-rule:nonzero;fill:rgb(0%,0%,0%);fill-opacity:1;" d="M 10.066406 10.988281 C 9.921875 11.09375 9.878906 11.1875 9.960938 11.238281 C 10.039062 11.292969 10.171875 11.238281 10.265625 11.132812 C 10.492188 10.851562 10.375 10.761719 10.066406 10.988281 Z M 10.066406 10.988281 "/>
<path style=" stroke:none;fill-rule:nonzero;fill:rgb(0%,0%,0%);fill-opacity:1;" d="M 15.601562 12.652344 C 15.601562 12.71875 15.691406 12.851562 15.828125 12.945312 C 16.253906 13.308594 16.535156 14.160156 16.519531 15.132812 C 16.519531 16.054688 16.292969 17.039062 16.28125 16.253906 C 16.265625 15.867188 15.265625 14.265625 15.039062 14.265625 C 14.960938 14.265625 14.933594 14.171875 14.972656 14.066406 C 15.027344 13.960938 15 13.839844 14.945312 13.800781 C 14.679688 13.640625 14.667969 14.1875 14.933594 14.425781 C 15.132812 14.613281 15.199219 14.839844 15.199219 15.332031 C 15.199219 15.691406 15.308594 16.28125 15.453125 16.625 C 15.585938 16.972656 15.851562 17.960938 16.054688 18.800781 C 16.535156 20.894531 16.652344 21.332031 16.785156 21.332031 C 16.851562 21.332031 16.972656 20.773438 17.054688 20.09375 C 17.148438 19.425781 17.332031 18.347656 17.464844 17.707031 C 17.613281 17.066406 17.773438 16.039062 17.8125 15.425781 L 17.90625 14.308594 L 17.386719 13.746094 C 16.90625 13.199219 15.601562 12.398438 15.601562 12.652344 Z M 17.132812 14 C 17.09375 14.066406 17.132812 14.132812 17.226562 14.160156 C 17.414062 14.226562 17.386719 16.214844 17.1875 17.199219 C 17.121094 17.535156 17 18.171875 16.90625 18.640625 C 16.828125 19.09375 16.691406 19.453125 16.625 19.425781 C 16.546875 19.398438 16.386719 18.933594 16.265625 18.386719 C 16.160156 17.839844 16.011719 17.332031 15.972656 17.253906 C 15.921875 17.171875 15.851562 16.972656 15.8125 16.785156 C 15.785156 16.613281 15.71875 16.308594 15.667969 16.09375 C 15.613281 15.894531 15.601562 15.734375 15.652344 15.734375 C 15.761719 15.734375 16.132812 16.492188 16.054688 16.558594 C 16.011719 16.601562 16.078125 16.667969 16.199219 16.707031 C 16.613281 16.867188 16.867188 16.171875 16.851562 14.921875 C 16.851562 14.011719 16.894531 13.773438 17.027344 13.828125 C 17.121094 13.867188 17.171875 13.945312 17.132812 14 Z M 17.132812 14 "/>
<path style=" stroke:none;fill-rule:nonzero;fill:rgb(0%,0%,0%);fill-opacity:1;" d="M 29.519531 12.652344 C 29.640625 12.839844 28.785156 12.933594 28.226562 12.8125 C 27.851562 12.71875 27.734375 12.734375 27.773438 12.839844 C 27.800781 12.933594 27.878906 13 27.945312 13.011719 C 28.761719 13.078125 29.453125 13.640625 29.867188 14.558594 C 30.105469 15.09375 30.105469 15.148438 29.894531 15.398438 C 29.679688 15.652344 29.679688 15.652344 29.90625 15.480469 C 30.039062 15.375 30.132812 15.359375 30.132812 15.441406 C 30.132812 15.71875 29.851562 15.761719 29.585938 15.519531 C 29.441406 15.386719 29.1875 15.265625 29.027344 15.238281 C 28.878906 15.214844 28.707031 15.148438 28.667969 15.09375 C 28.625 15.039062 28.507812 15 28.398438 15 C 28.292969 15.011719 28.132812 14.972656 28.066406 14.921875 C 27.988281 14.867188 27.492188 14.785156 26.972656 14.746094 C 25.945312 14.679688 25.613281 14.828125 25.921875 15.199219 C 26.078125 15.398438 27.464844 16.1875 27.464844 16.078125 C 27.464844 16.054688 27.09375 15.773438 26.640625 15.464844 L 25.800781 14.90625 L 26.464844 15 C 28.027344 15.214844 29.011719 15.507812 29.574219 15.894531 C 30.078125 16.253906 30.1875 16.28125 30.347656 16.105469 C 30.519531 15.945312 30.507812 15.8125 30.28125 15.078125 C 30.132812 14.613281 29.839844 14.011719 29.613281 13.734375 L 29.214844 13.226562 L 29.667969 13.148438 C 30.1875 13.039062 30.265625 12.878906 29.878906 12.667969 C 29.558594 12.507812 29.425781 12.492188 29.519531 12.652344 Z M 29.519531 12.652344 "/>
<path style=" stroke:none;fill-rule:nonzero;fill:rgb(0%,0%,0%);fill-opacity:1;" d="M 29.066406 14.238281 C 29.066406 14.292969 29.148438 14.453125 29.238281 14.585938 C 29.375 14.773438 29.425781 14.785156 29.425781 14.640625 C 29.425781 14.546875 29.347656 14.386719 29.238281 14.292969 C 29.148438 14.199219 29.066406 14.171875 29.066406 14.238281 Z M 29.066406 14.238281 "/>
<path style=" stroke:none;fill-rule:nonzero;fill:rgb(0%,0%,0%);fill-opacity:1;" d="M 25.867188 16 C 25.867188 16.09375 26.1875 16.265625 26.347656 16.265625 C 26.519531 16.265625 26.359375 16.011719 26.132812 15.960938 C 25.988281 15.921875 25.867188 15.933594 25.867188 16 Z M 25.867188 16 "/>
<path style=" stroke:none;fill-rule:nonzero;fill:rgb(0%,0%,0%);fill-opacity:1;" d="M 20.707031 17.519531 C 19.308594 17.972656 18.375 18.851562 18.132812 19.933594 C 18.027344 20.441406 18.09375 20.933594 18.28125 20.933594 C 18.332031 20.933594 18.71875 20.691406 19.148438 20.398438 C 20.1875 19.667969 21.027344 19.414062 22.132812 19.492188 C 23.894531 19.625 24.8125 20.375 24.90625 21.761719 C 24.945312 22.308594 25.027344 22.535156 25.148438 22.535156 C 25.292969 22.535156 25.332031 22.292969 25.332031 21.492188 C 25.332031 18.945312 24.199219 17.492188 22.160156 17.386719 C 21.625 17.359375 21.039062 17.414062 20.707031 17.519531 Z M 23.199219 17.988281 C 23.199219 18.054688 23.359375 18.171875 23.574219 18.265625 C 24.066406 18.480469 24.613281 19.171875 24.734375 19.71875 L 24.828125 20.160156 L 24.386719 19.851562 C 24.132812 19.679688 23.90625 19.492188 23.867188 19.453125 C 23.773438 19.332031 23.132812 19.199219 22.347656 19.121094 C 21.972656 19.078125 21.601562 19.027344 21.507812 19 C 21.414062 18.972656 21.308594 19 21.28125 19.054688 C 21.238281 19.121094 21.066406 19.160156 20.894531 19.160156 C 20.71875 19.160156 20.398438 19.265625 20.1875 19.375 C 19.972656 19.492188 19.640625 19.652344 19.441406 19.746094 C 19.226562 19.828125 19.066406 19.933594 19.066406 19.988281 C 19.066406 20.039062 18.921875 20.160156 18.746094 20.238281 C 18.453125 20.375 18.425781 20.359375 18.464844 20.132812 C 18.558594 19.625 18.972656 18.921875 19.253906 18.773438 C 19.398438 18.691406 19.625 18.535156 19.734375 18.414062 C 19.839844 18.292969 20.078125 18.171875 20.265625 18.160156 C 20.453125 18.132812 20.652344 18.054688 20.734375 17.988281 C 20.894531 17.828125 23.199219 17.828125 23.199219 17.988281 Z M 23.199219 17.988281 "/>
<path style=" stroke:none;fill-rule:nonzero;fill:rgb(0%,0%,0%);fill-opacity:1;" d="M 15.574219 20.171875 C 14.746094 20.867188 14.535156 22.226562 15.121094 23.078125 C 15.308594 23.347656 15.492188 23.707031 15.535156 23.894531 C 15.574219 24.066406 15.707031 24.214844 15.839844 24.214844 C 16.054688 24.214844 16.054688 24.171875 15.8125 23.667969 C 15.667969 23.375 15.480469 23.09375 15.414062 23.039062 C 15.320312 22.972656 15.320312 22.933594 15.398438 22.933594 C 15.480469 22.933594 15.441406 22.867188 15.332031 22.800781 C 15.09375 22.652344 15.09375 21.398438 15.332031 20.800781 C 15.546875 20.28125 15.707031 20.28125 15.625 20.800781 C 15.585938 21.105469 15.640625 21.265625 15.878906 21.453125 C 16.054688 21.585938 16.347656 21.828125 16.519531 21.988281 C 16.691406 22.148438 16.933594 22.28125 17.054688 22.292969 C 17.171875 22.308594 17.359375 22.320312 17.464844 22.332031 C 17.8125 22.359375 18.238281 22.652344 18.332031 22.933594 C 18.375 23.078125 18.558594 23.238281 18.746094 23.28125 C 19.171875 23.386719 19.148438 23.574219 18.707031 23.773438 C 18.507812 23.851562 18.226562 24.039062 18.09375 24.171875 C 17.960938 24.308594 17.761719 24.386719 17.667969 24.347656 C 17.574219 24.320312 17.414062 24.375 17.320312 24.480469 C 17.226562 24.585938 17.078125 24.652344 16.972656 24.613281 C 16.878906 24.574219 16.800781 24.601562 16.800781 24.679688 C 16.800781 24.761719 16.707031 24.785156 16.585938 24.746094 C 16.480469 24.707031 16.414062 24.71875 16.453125 24.785156 C 16.492188 24.851562 16.359375 24.933594 16.148438 24.960938 C 15.761719 25.011719 15.761719 25.011719 15.972656 24.691406 L 16.1875 24.359375 L 15.785156 24.558594 C 15.171875 24.878906 14.492188 24.960938 14.039062 24.773438 C 13.492188 24.546875 11.921875 24.652344 11.972656 24.921875 C 12 25.027344 11.933594 25.066406 11.828125 25.027344 C 11.679688 24.972656 11.640625 25.054688 11.652344 25.28125 C 11.667969 25.546875 11.691406 25.574219 11.8125 25.398438 C 11.894531 25.292969 12.027344 25.199219 12.105469 25.199219 C 12.1875 25.199219 12.265625 25.148438 12.292969 25.066406 C 12.332031 24.921875 13.238281 24.867188 13.667969 24.988281 C 13.8125 25.027344 14.148438 25.121094 14.398438 25.1875 C 14.71875 25.265625 14.773438 25.308594 14.574219 25.320312 C 14.414062 25.332031 14.253906 25.441406 14.214844 25.574219 C 14.160156 25.746094 13.972656 25.828125 13.613281 25.839844 C 12.933594 25.878906 12.601562 25.945312 12.292969 26.121094 C 12.148438 26.199219 12 26.214844 11.945312 26.171875 C 11.90625 26.132812 11.867188 26.160156 11.867188 26.238281 C 11.867188 26.332031 11.785156 26.398438 11.679688 26.398438 C 11.574219 26.398438 11.414062 26.613281 11.320312 26.851562 C 11.226562 27.105469 11.09375 27.28125 11.027344 27.238281 C 10.945312 27.199219 10.933594 27.226562 10.988281 27.308594 C 11.039062 27.386719 11.011719 27.574219 10.945312 27.707031 C 10.828125 27.921875 10.894531 28.039062 11.308594 28.414062 C 11.691406 28.773438 11.746094 28.867188 11.558594 28.90625 C 11.441406 28.933594 11.359375 29.011719 11.414062 29.078125 C 11.507812 29.226562 11.1875 30.132812 11.039062 30.132812 C 10.988281 30.132812 10.933594 30.214844 10.933594 30.308594 C 10.933594 30.585938 10.613281 31.199219 10.464844 31.199219 C 10.28125 31.199219 9.972656 30.828125 9.773438 30.359375 C 9.679688 30.160156 9.601562 29.519531 9.601562 28.960938 C 9.601562 28.039062 9.652344 27.828125 10.066406 27 C 10.667969 25.851562 11.414062 24.679688 11.785156 24.347656 C 12.066406 24.105469 12.066406 24.105469 11.734375 24.292969 C 11.308594 24.546875 10.398438 25.8125 9.800781 27.011719 C 9.375 27.867188 9.332031 28.054688 9.332031 29.066406 C 9.332031 30.078125 9.375 30.238281 9.828125 31.078125 C 10.214844 31.800781 10.359375 31.960938 10.480469 31.839844 C 10.574219 31.746094 10.972656 31.039062 11.375 30.28125 L 12.105469 28.894531 L 11.640625 28.453125 C 11.253906 28.078125 11.1875 27.945312 11.253906 27.652344 C 11.492188 26.734375 12.320312 26.171875 13.238281 26.320312 C 13.71875 26.398438 13.828125 26.359375 14.1875 26.011719 C 14.480469 25.734375 14.90625 25.535156 15.667969 25.347656 C 16.851562 25.027344 18.625 24.332031 18.945312 24.054688 C 19.238281 23.785156 19.625 23.828125 20.546875 24.199219 C 21.375 24.535156 21.398438 24.519531 21.492188 23.945312 C 21.519531 23.734375 21.386719 23.640625 20.746094 23.453125 C 20.132812 23.265625 19.90625 23.253906 19.761719 23.359375 C 19.613281 23.492188 19.535156 23.453125 19.359375 23.238281 C 19.226562 23.09375 19.011719 22.921875 18.867188 22.878906 C 18.71875 22.839844 18.507812 22.625 18.386719 22.414062 C 18.214844 22.105469 18.039062 22.011719 17.546875 21.945312 C 16.480469 21.785156 15.546875 20.613281 16.011719 20.054688 C 16.253906 19.761719 15.972656 19.839844 15.574219 20.171875 Z M 13.558594 26.078125 C 13.519531 26.121094 13.398438 26.132812 13.308594 26.09375 C 13.199219 26.054688 13.238281 26.011719 13.386719 26.011719 C 13.535156 26 13.613281 26.039062 13.558594 26.078125 Z M 13.558594 26.078125 "/>
<path style=" stroke:none;fill-rule:nonzero;fill:rgb(0%,0%,0%);fill-opacity:1;" d="M 18.464844 24.8125 C 18.027344 25.027344 17.746094 25.199219 17.839844 25.199219 C 17.933594 25.199219 18.199219 25.105469 18.425781 24.988281 C 19.054688 24.667969 19.425781 24.625 19.601562 24.894531 C 19.71875 25.09375 19.746094 25.09375 19.691406 24.921875 C 19.625 24.734375 19.691406 24.71875 20.105469 24.8125 C 20.691406 24.945312 20.746094 24.972656 20.707031 25.09375 C 20.679688 25.160156 20.761719 25.199219 20.867188 25.199219 C 20.988281 25.199219 21.148438 25.359375 21.238281 25.558594 C 21.320312 25.773438 21.441406 25.972656 21.507812 26.011719 C 21.71875 26.160156 21.292969 26.652344 20.972656 26.640625 C 20.800781 26.613281 20.667969 26.574219 20.667969 26.535156 C 20.667969 26.386719 17.386719 26.519531 16.933594 26.679688 C 16.679688 26.773438 16.453125 26.828125 16.441406 26.785156 C 16.414062 26.761719 16.308594 26.867188 16.199219 27.027344 C 16.078125 27.199219 15.851562 27.332031 15.707031 27.332031 C 15.546875 27.332031 15.453125 27.375 15.507812 27.414062 C 15.625 27.535156 15.066406 28.011719 14.90625 27.921875 C 14.828125 27.867188 14.800781 27.878906 14.839844 27.960938 C 14.933594 28.121094 14.199219 28.960938 14.078125 28.828125 C 14.027344 28.785156 14.027344 28.851562 14.078125 28.988281 C 14.160156 29.1875 14.132812 29.214844 13.988281 29.132812 C 13.878906 29.078125 13.839844 29.078125 13.90625 29.132812 C 13.960938 29.199219 13.90625 29.359375 13.773438 29.492188 C 13.652344 29.625 13.613281 29.734375 13.667969 29.734375 C 13.71875 29.734375 13.679688 29.839844 13.574219 29.960938 C 13.464844 30.09375 13.265625 30.492188 13.148438 30.839844 C 12.960938 31.332031 12.945312 31.519531 13.066406 31.667969 C 13.375 32.039062 13.320312 32.574219 12.933594 32.972656 C 12.734375 33.171875 12.453125 33.359375 12.292969 33.398438 C 12.132812 33.425781 11.90625 33.507812 11.785156 33.574219 C 11.332031 33.828125 11.066406 33.613281 11.066406 33.011719 C 11.066406 32.707031 11.121094 32.398438 11.171875 32.320312 C 11.238281 32.253906 11.425781 31.839844 11.601562 31.398438 C 12.160156 29.972656 13.652344 27.148438 14.105469 26.652344 C 14.398438 26.320312 14.746094 26.105469 15.171875 26 C 15.519531 25.921875 15.945312 25.785156 16.132812 25.734375 C 16.320312 25.667969 16.734375 25.546875 17.054688 25.464844 C 17.359375 25.386719 17.601562 25.28125 17.558594 25.253906 C 17.414062 25.105469 14.746094 25.933594 14.214844 26.292969 C 13.707031 26.625 13.519531 26.921875 12.558594 28.839844 C 11.386719 31.214844 10.667969 32.894531 10.667969 33.308594 C 10.667969 33.746094 11.214844 34.011719 11.8125 33.851562 C 12.585938 33.640625 13.332031 33.171875 13.535156 32.800781 C 13.679688 32.519531 13.679688 32.386719 13.519531 32.011719 C 13.253906 31.359375 13.28125 31.078125 13.761719 30.132812 C 14.253906 29.148438 15.785156 27.519531 16.601562 27.121094 C 17.054688 26.90625 17.425781 26.867188 19.226562 26.867188 C 20.707031 26.867188 21.375 26.8125 21.492188 26.691406 C 21.574219 26.613281 21.734375 26.535156 21.839844 26.535156 C 22.078125 26.535156 21.960938 25.972656 21.574219 25.347656 C 20.945312 24.332031 19.839844 24.132812 18.464844 24.8125 Z M 18.464844 24.8125 "/>
<path style=" stroke:none;fill-rule:nonzero;fill:rgb(0%,0%,0%);fill-opacity:1;" d="M 19.09375 25.28125 C 18.933594 25.386719 18.800781 25.441406 18.800781 25.386719 C 18.800781 25.347656 18.71875 25.375 18.625 25.453125 C 18.519531 25.535156 18.332031 25.613281 18.1875 25.640625 C 18.054688 25.652344 17.878906 25.707031 17.800781 25.746094 C 17.734375 25.800781 17.09375 25.972656 16.398438 26.132812 C 15.707031 26.308594 15.09375 26.507812 15.054688 26.574219 C 15 26.640625 14.867188 26.667969 14.761719 26.625 C 14.625 26.574219 14.535156 26.652344 14.480469 26.867188 C 14.425781 27.054688 14.28125 27.253906 14.132812 27.332031 C 13.988281 27.414062 13.867188 27.546875 13.867188 27.625 C 13.867188 27.707031 14.039062 27.601562 14.238281 27.375 C 14.585938 27.027344 15.734375 26.425781 15.734375 26.601562 C 15.734375 26.640625 15.839844 26.613281 15.972656 26.546875 C 16.09375 26.480469 16.386719 26.398438 16.601562 26.359375 C 17.320312 26.238281 19.199219 25.574219 19.199219 25.441406 C 19.199219 25.375 19.265625 25.359375 19.332031 25.398438 C 19.414062 25.441406 19.464844 25.386719 19.464844 25.28125 C 19.464844 25.011719 19.464844 25.011719 19.09375 25.28125 Z M 19.09375 25.28125 "/>
<path style=" stroke:none;fill-rule:nonzero;fill:rgb(0%,0%,0%);fill-opacity:1;" d="M 11.320312 25.464844 C 11.320312 25.507812 11.292969 25.652344 11.265625 25.800781 C 11.238281 25.945312 11.148438 26.078125 11.078125 26.105469 C 11 26.132812 10.933594 26.238281 10.933594 26.332031 C 10.933594 26.425781 10.867188 26.535156 10.785156 26.558594 C 10.691406 26.585938 10.652344 26.691406 10.691406 26.800781 C 10.71875 26.90625 10.867188 26.785156 11.066406 26.453125 C 11.238281 26.171875 11.425781 25.90625 11.480469 25.867188 C 11.546875 25.828125 11.535156 25.707031 11.464844 25.601562 C 11.386719 25.492188 11.332031 25.425781 11.320312 25.464844 Z M 11.320312 25.464844 "/>
<path style=" stroke:none;fill-rule:nonzero;fill:rgb(0%,0%,0%);fill-opacity:1;" d="M 0.0664062 27.09375 C 0.292969 27.8125 1 29.347656 1.558594 30.332031 C 3.558594 33.8125 6.828125 36.933594 10.332031 38.707031 C 12.011719 39.558594 13.574219 40.148438 13.398438 39.851562 C 13.265625 39.652344 12.039062 39.066406 11.945312 39.160156 C 11.90625 39.214844 11.867188 39.1875 11.867188 39.105469 C 11.867188 39.027344 11.667969 38.933594 11.441406 38.878906 C 11.199219 38.828125 10.773438 38.640625 10.507812 38.464844 C 10.226562 38.28125 9.945312 38.132812 9.867188 38.132812 C 9.785156 38.132812 9.761719 38.066406 9.8125 37.972656 C 9.867188 37.894531 9.851562 37.867188 9.761719 37.921875 C 9.691406 37.960938 9.214844 37.734375 8.734375 37.398438 C 8.238281 37.066406 7.773438 36.800781 7.71875 36.800781 C 7.652344 36.800781 7.601562 36.746094 7.601562 36.679688 C 7.601562 36.613281 7.386719 36.425781 7.132812 36.265625 C 6.558594 35.90625 5.746094 35.105469 5.851562 34.988281 C 5.894531 34.945312 5.851562 34.933594 5.761719 34.960938 C 5.558594 35.011719 3.601562 32.960938 3.601562 32.691406 C 3.601562 32.601562 3.546875 32.546875 3.480469 32.601562 C 3.414062 32.640625 3.308594 32.535156 3.253906 32.375 C 3.199219 32.199219 3.066406 31.988281 2.945312 31.894531 C 2.773438 31.746094 2.773438 31.734375 2.933594 31.800781 C 3.105469 31.878906 3.105469 31.867188 2.933594 31.707031 C 2.585938 31.398438 1.867188 30.308594 1.960938 30.214844 C 2 30.171875 1.972656 30.132812 1.878906 30.132812 C 1.785156 30.132812 1.761719 30.066406 1.800781 30 C 1.839844 29.921875 1.828125 29.867188 1.761719 29.867188 C 1.625 29.867188 0.867188 28.398438 0.90625 28.226562 C 0.921875 28.171875 0.785156 27.894531 0.601562 27.601562 C 0.414062 27.308594 0.265625 27.011719 0.265625 26.933594 C 0.265625 26.867188 0.199219 26.800781 0.121094 26.800781 C 0.0390625 26.800781 0.0117188 26.921875 0.0664062 27.09375 Z M 0.0664062 27.09375 "/>
<path style=" stroke:none;fill-rule:nonzero;fill:rgb(0%,0%,0%);fill-opacity:1;" d="M 39.71875 27.105469 C 39.601562 27.265625 39.464844 27.535156 39.414062 27.691406 C 39.359375 27.867188 39.253906 28 39.1875 28 C 39.105469 28 39.078125 28.054688 39.121094 28.105469 C 39.160156 28.171875 39.09375 28.398438 38.988281 28.613281 C 38.867188 28.828125 38.785156 29.011719 38.785156 29.027344 C 38.839844 29.214844 38.773438 29.332031 38.667969 29.265625 C 38.585938 29.214844 38.535156 29.226562 38.546875 29.292969 C 38.585938 29.535156 38.519531 29.691406 38.265625 29.972656 C 38.105469 30.132812 38.027344 30.265625 38.066406 30.265625 C 38.121094 30.265625 38.027344 30.441406 37.878906 30.652344 C 37.71875 30.867188 37.601562 31.105469 37.601562 31.1875 C 37.601562 31.253906 37.519531 31.375 37.414062 31.425781 C 37.308594 31.480469 37.199219 31.613281 37.171875 31.71875 C 37.132812 31.894531 36.707031 32.453125 36.238281 32.945312 C 36.105469 33.09375 36.027344 33.199219 36.054688 33.199219 C 36.078125 33.199219 35.585938 33.746094 34.945312 34.398438 C 34.292969 35.054688 33.707031 35.601562 33.625 35.601562 C 33.546875 35.601562 33.453125 35.71875 33.398438 35.851562 C 33.359375 36 33.214844 36.160156 33.078125 36.199219 C 32.960938 36.238281 32.734375 36.375 32.585938 36.507812 C 32.171875 36.878906 30.375 38 30.171875 38 C 30.066406 38 30.011719 38.054688 30.054688 38.105469 C 30.09375 38.160156 29.71875 38.386719 29.226562 38.601562 C 28.734375 38.8125 27.921875 39.1875 27.398438 39.441406 C 26.585938 39.828125 26.535156 39.878906 26.960938 39.8125 C 27.640625 39.734375 29.386719 38.945312 30.773438 38.121094 C 34.71875 35.761719 37.960938 32.039062 39.574219 28.039062 C 40.039062 26.867188 40.078125 26.625 39.71875 27.105469 Z M 39.71875 27.105469 "/>
<path style=" stroke:none;fill-rule:nonzero;fill:rgb(0%,0%,0%);fill-opacity:1;" d="M 13.507812 28.332031 C 13.507812 28.441406 13.558594 28.492188 13.625 28.453125 C 13.679688 28.414062 13.734375 28.332031 13.734375 28.253906 C 13.734375 28.1875 13.679688 28.132812 13.625 28.132812 C 13.558594 28.132812 13.507812 28.226562 13.507812 28.332031 Z M 13.507812 28.332031 "/>
<path style=" stroke:none;fill-rule:nonzero;fill:rgb(0%,0%,0%);fill-opacity:1;" d="M 13.1875 29.027344 C 13.011719 29.238281 13.027344 29.253906 13.238281 29.078125 C 13.359375 28.988281 13.464844 28.878906 13.464844 28.851562 C 13.464844 28.746094 13.359375 28.8125 13.1875 29.027344 Z M 13.1875 29.027344 "/>
<path style=" stroke:none;fill-rule:nonzero;fill:rgb(0%,0%,0%);fill-opacity:1;" d="M 7.238281 33.851562 L 6.691406 34.773438 L 7.292969 35.039062 C 8.1875 35.425781 8.8125 35.132812 8.414062 34.519531 C 8.292969 34.308594 8.308594 34.265625 8.507812 34.265625 C 8.867188 34.265625 9.078125 34 8.933594 33.734375 C 8.839844 33.546875 7.972656 32.933594 7.828125 32.933594 C 7.8125 32.933594 7.546875 33.347656 7.238281 33.851562 Z M 8.386719 33.640625 C 8.558594 33.851562 8.453125 34 8.105469 34 C 7.867188 34 7.773438 33.734375 7.960938 33.558594 C 8.09375 33.425781 8.214844 33.453125 8.386719 33.640625 Z M 8 34.734375 C 7.921875 34.828125 7.734375 34.878906 7.601562 34.839844 C 7.292969 34.761719 7.28125 34.734375 7.480469 34.386719 C 7.613281 34.121094 7.640625 34.121094 7.878906 34.347656 C 8.066406 34.507812 8.09375 34.625 8 34.734375 Z M 8 34.734375 "/>
<path style=" stroke:none;fill-rule:nonzero;fill:rgb(0%,0%,0%);fill-opacity:1;" d="M 32.027344 33.160156 C 31.546875 33.386719 31.347656 33.894531 31.601562 34.199219 C 31.707031 34.320312 32 34.398438 32.347656 34.398438 C 32.667969 34.398438 32.933594 34.453125 32.933594 34.507812 C 32.933594 34.71875 32.601562 34.933594 32.28125 34.933594 C 31.960938 34.933594 31.960938 34.945312 32.171875 35.160156 C 32.386719 35.386719 32.425781 35.375 32.867188 35.148438 C 33.464844 34.8125 33.601562 34.425781 33.199219 34.105469 C 32.988281 33.933594 32.773438 33.878906 32.464844 33.945312 C 31.878906 34.054688 31.761719 33.800781 32.253906 33.492188 C 32.800781 33.160156 32.613281 32.878906 32.027344 33.160156 Z M 32.027344 33.160156 "/>
<path style=" stroke:none;fill-rule:nonzero;fill:rgb(0%,0%,0%);fill-opacity:1;" d="M 29.800781 34.214844 C 29.585938 34.332031 29.386719 34.453125 29.359375 34.464844 C 29.332031 34.492188 29.519531 34.90625 29.761719 35.386719 C 30.054688 35.988281 30.265625 36.253906 30.398438 36.226562 C 30.507812 36.199219 30.574219 36.09375 30.546875 35.988281 C 30.519531 35.878906 30.464844 35.691406 30.441406 35.558594 C 30.347656 35.265625 30.640625 35.265625 31.054688 35.585938 C 31.347656 35.8125 31.867188 35.828125 31.867188 35.601562 C 31.867188 35.546875 31.625 35.398438 31.347656 35.265625 C 30.878906 35.066406 30.839844 35 30.972656 34.785156 C 31.347656 34.199219 30.546875 33.8125 29.800781 34.214844 Z M 30.574219 34.585938 C 30.613281 34.691406 30.558594 34.851562 30.441406 34.945312 C 30.265625 35.09375 30.214844 35.078125 30.054688 34.867188 C 29.90625 34.667969 29.90625 34.601562 30.039062 34.507812 C 30.292969 34.347656 30.492188 34.375 30.574219 34.585938 Z M 30.574219 34.585938 "/>
<path style=" stroke:none;fill-rule:nonzero;fill:rgb(0%,0%,0%);fill-opacity:1;" d="M 9.386719 34.933594 C 8.679688 35.613281 8.601562 35.734375 8.828125 35.8125 C 8.960938 35.851562 9.160156 35.828125 9.265625 35.734375 C 9.558594 35.492188 10.132812 35.707031 10.132812 36.066406 C 10.132812 36.320312 10.492188 36.640625 10.601562 36.507812 C 10.707031 36.375 10.773438 34.265625 10.679688 34.265625 C 10.613281 34.265625 10.480469 34.238281 10.375 34.199219 C 10.28125 34.160156 9.828125 34.492188 9.386719 34.933594 Z M 10.292969 35 C 10.238281 35.492188 10.1875 35.535156 9.867188 35.332031 C 9.707031 35.238281 9.71875 35.160156 10 34.878906 C 10.171875 34.679688 10.320312 34.535156 10.332031 34.535156 C 10.332031 34.535156 10.320312 34.746094 10.292969 35 Z M 10.292969 35 "/>
<path style=" stroke:none;fill-rule:nonzero;fill:rgb(0%,0%,0%);fill-opacity:1;" d="M 11.734375 34.8125 C 11.734375 34.878906 11.734375 34.972656 11.71875 35.027344 C 11.71875 35.078125 11.945312 35.1875 12.214844 35.265625 L 12.707031 35.398438 L 11.878906 35.921875 C 11.425781 36.199219 11.078125 36.492188 11.105469 36.574219 C 11.148438 36.707031 12.28125 37.171875 12.640625 37.1875 C 13.039062 37.214844 12.746094 36.828125 12.253906 36.679688 L 11.71875 36.519531 L 12.507812 36 C 12.945312 35.71875 13.332031 35.441406 13.375 35.375 C 13.414062 35.308594 13.066406 35.121094 12.585938 34.972656 C 12.121094 34.8125 11.734375 34.746094 11.734375 34.8125 Z M 11.734375 34.8125 "/>
<path style=" stroke:none;fill-rule:nonzero;fill:rgb(0%,0%,0%);fill-opacity:1;" d="M 27.441406 35.199219 C 27.105469 35.546875 27.054688 35.679688 27.121094 36.027344 C 27.214844 36.535156 27.425781 36.785156 27.839844 36.945312 C 28.226562 37.09375 28.988281 36.800781 29.199219 36.398438 C 29.535156 35.773438 28.921875 34.800781 28.171875 34.800781 C 27.988281 34.800781 27.667969 34.972656 27.441406 35.199219 Z M 28.535156 35.464844 C 29 35.933594 28.800781 36.535156 28.171875 36.535156 C 27.652344 36.535156 27.375 35.613281 27.839844 35.347656 C 28.160156 35.148438 28.226562 35.160156 28.535156 35.464844 Z M 28.535156 35.464844 "/>
<path style=" stroke:none;fill-rule:nonzero;fill:rgb(0%,0%,0%);fill-opacity:1;" d="M 13.613281 36.09375 C 13.519531 36.519531 13.414062 37 13.375 37.160156 C 13.320312 37.398438 13.359375 37.464844 13.574219 37.464844 C 13.761719 37.464844 13.851562 37.347656 13.921875 37.054688 C 14.011719 36.574219 14.199219 36.640625 14.464844 37.28125 C 14.679688 37.800781 15.148438 37.933594 14.988281 37.425781 C 14.945312 37.265625 14.851562 37.054688 14.800781 36.945312 C 14.746094 36.839844 14.828125 36.652344 15.027344 36.453125 C 15.425781 36.054688 15.265625 35.667969 14.640625 35.535156 C 14.398438 35.480469 14.105469 35.425781 14 35.386719 C 13.839844 35.347656 13.746094 35.519531 13.613281 36.09375 Z M 14.71875 36.199219 C 14.601562 36.492188 14.132812 36.453125 14.132812 36.160156 C 14.132812 35.8125 14.265625 35.71875 14.546875 35.878906 C 14.679688 35.945312 14.761719 36.09375 14.71875 36.199219 Z M 14.71875 36.199219 "/>
<path style=" stroke:none;fill-rule:nonzero;fill:rgb(0%,0%,0%);fill-opacity:1;" d="M 26.066406 35.425781 C 25.066406 35.652344 24.785156 35.761719 24.839844 35.90625 C 24.867188 36 25.039062 36.054688 25.226562 36.027344 C 25.535156 35.988281 25.574219 36.039062 25.734375 36.785156 C 25.839844 37.28125 25.972656 37.601562 26.078125 37.601562 C 26.375 37.601562 26.398438 37.414062 26.199219 36.652344 C 25.945312 35.71875 25.945312 35.734375 26.332031 35.734375 C 26.574219 35.734375 26.640625 35.679688 26.585938 35.535156 C 26.535156 35.425781 26.464844 35.347656 26.414062 35.347656 C 26.375 35.359375 26.214844 35.386719 26.066406 35.425781 Z M 26.066406 35.425781 "/>
<path style=" stroke:none;fill-rule:nonzero;fill:rgb(0%,0%,0%);fill-opacity:1;" d="M 16.011719 36.785156 C 15.707031 37.292969 15.464844 37.746094 15.464844 37.785156 C 15.464844 37.960938 16.011719 37.851562 16.078125 37.667969 C 16.199219 37.359375 16.945312 37.398438 17.027344 37.71875 C 17.09375 37.960938 17.441406 38.199219 17.558594 38.09375 C 17.585938 38.066406 17.492188 37.574219 17.359375 36.988281 C 17.160156 36.105469 17.078125 35.921875 16.839844 35.894531 C 16.613281 35.851562 16.453125 36.039062 16.011719 36.785156 Z M 16.839844 36.761719 C 16.921875 37.132812 16.894531 37.199219 16.667969 37.199219 C 16.359375 37.199219 16.332031 37.078125 16.558594 36.601562 C 16.734375 36.199219 16.734375 36.199219 16.839844 36.761719 Z M 16.839844 36.761719 "/>
<path style=" stroke:none;fill-rule:nonzero;fill:rgb(0%,0%,0%);fill-opacity:1;" d="M 22.878906 36.148438 C 22.414062 36.519531 22.398438 37.214844 22.867188 37.667969 C 23.519531 38.332031 24.667969 37.894531 24.667969 36.988281 C 24.667969 36.039062 23.640625 35.546875 22.878906 36.148438 Z M 23.988281 36.453125 C 24.398438 36.945312 23.867188 37.828125 23.375 37.519531 C 22.878906 37.214844 23.054688 36.265625 23.601562 36.265625 C 23.734375 36.265625 23.90625 36.347656 23.988281 36.453125 Z M 23.988281 36.453125 "/>
<path style=" stroke:none;fill-rule:nonzero;fill:rgb(0%,0%,0%);fill-opacity:1;" d="M 21.464844 36.132812 C 21.214844 36.1875 21.09375 36.359375 20.921875 36.933594 C 20.785156 37.386719 20.667969 37.585938 20.613281 37.464844 C 20.574219 37.359375 20.453125 37.027344 20.359375 36.734375 C 20.199219 36.265625 20.121094 36.199219 19.734375 36.160156 C 19.308594 36.121094 19.292969 36.121094 19.386719 36.546875 C 19.425781 36.773438 19.464844 37.253906 19.464844 37.601562 C 19.464844 38.078125 19.519531 38.226562 19.679688 38.226562 C 19.867188 38.226562 19.894531 38.09375 19.828125 37.359375 C 19.746094 36.398438 19.851562 36.414062 20.214844 37.425781 C 20.558594 38.425781 20.839844 38.386719 21.1875 37.292969 L 21.453125 36.464844 L 21.453125 37.292969 C 21.464844 38.054688 21.492188 38.132812 21.746094 38.132812 C 22.011719 38.132812 22.011719 38.078125 21.960938 37.132812 C 21.933594 36.574219 21.878906 36.105469 21.851562 36.078125 C 21.828125 36.066406 21.652344 36.078125 21.464844 36.132812 Z M 21.464844 36.132812 "/>
</g>
</svg>
